<?xml version="1.0"?>
<svg width="894.24907" height="448.2822" xmlns="http://www.w3.org/2000/svg" xmlns:svg="http://www.w3.org/2000/svg" data-name="Layer 1">
 <title>contact</title>

 <g class="layer">
  <title>Layer 1</title>
  <path d="m447.37,674.14q-40.48,0 -80.83,-1.45c-38.44,-1.38 -78.19,-2.81 -115.13,-23.3c-25.85,-14.33 -48.74,-37.33 -66.2,-66.5a223.77,223.77 0 0 1 -25.37,-63.61a261.48,261.48 0 0 1 0.95,-123.77a219.83,219.83 0 0 1 14.75,-40.41c26.94,-55.79 76.08,-93.24 134.82,-102.75a6.81,6.81 0 0 1 1.46,-0.03c0.27,0.01 0.53,0.03 0.8,0.02l0.35,-0.11a16.88,16.88 0 0 1 2.72,-0.7c90.59,-13.49 186.36,13.8 276.95,78.91c70.04,50.35 162.87,77.47 283.78,82.89l1.72,0.09c33.66,1.94 66.22,15.81 94.16,40.14c27.58,24 48.28,56.03 59.88,92.62c1.43,4.46 2.73,9.1 3.89,13.8a26.04,26.04 0 0 1 -6.95,24.69l0,0.01l-0.3,0.31c-0.72,0.72 -1.48,1.41 -2.26,2.05l-0.92,0.76c-7.73,6.37 -13.83,11.39 -21.14,15.3a64.98,64.98 0 0 1 -15.41,5.82c-29.47,7.18 -59.39,13.84 -88.94,19.8c-57.38,11.57 -116.28,21.11 -175.05,28.37a2269.14,2269.14 0 0 1 -277.73,17.05zm-136.23,-419.84a3.51,3.51 0 0 0 -0.54,0.03c-58.19,9.42 -106.87,46.51 -133.55,101.75a217.62,217.62 0 0 0 -14.59,40a259.19,259.19 0 0 0 -0.94,122.68a221.62,221.62 0 0 0 25.12,62.99c17.29,28.89 39.95,51.66 65.52,65.84c36.61,20.31 76.18,21.73 114.43,23.1a2266.31,2266.31 0 0 0 358.32,-15.59c58.74,-7.25 117.59,-16.79 174.94,-28.35c29.53,-5.95 59.43,-12.61 88.88,-19.79a63.36,63.36 0 0 0 15.04,-5.68c7.16,-3.82 13.21,-8.8 20.86,-15.11l0.92,-0.75c0.67,-0.56 1.32,-1.15 1.95,-1.76l0.18,-0.19c6.29,-6.34 8.74,-14.7 6.71,-22.95l0,0c-1.14,-4.64 -2.43,-9.24 -3.84,-13.65c-23.69,-74.75 -84.97,-127.57 -152.5,-131.45l-1.7,-0.09c-55.24,-2.48 -103.57,-9.34 -147.75,-20.99c-52.75,-13.9 -98.81,-34.83 -136.88,-62.2c-90.24,-64.86 -185.61,-92.05 -275.81,-78.63a15.47,15.47 0 0 0 -2.48,0.65l-0.62,0.17a9.37,9.37 0 0 1 -1.07,-0.01c-0.2,-0.01 -0.41,-0.02 -0.6,-0.02z" fill="#f0f0f0" id="svg_1" transform="translate(-152.87546 -225.8589)"/>
  <path d="m432.2,371.91c-2.5,-2.39 -5.05,-15.76 -8.24,-17.11c2.38,5.26 0.65,6.66 0.64,12.44a39.12,39.12 0 0 1 -1.14,9.75l-54.02,0l0,-42.17a28.85,28.85 0 0 1 28.84,-28.84a17.21,17.21 0 0 1 4.28,0.62a27.43,27.43 0 0 1 19.35,19.41c4.12,15.05 10.67,40.11 10.29,45.9z" fill="#2f2e41" id="svg_2" transform="translate(-152.87546 -225.8589)"/>
  <path d="m372.61,423.78l0.02,-32.86l-19.32,1.73l6.82,20.72l-3.19,52.1a8.17,8.17 0 1 0 9.89,6.89l5.78,-48.58z" fill="#ffb6b6" id="svg_3" transform="translate(-152.87546 -225.8589)"/>
  <polygon fill="#ffb6b6" id="svg_4" points="257.746 432.76 265.55 432.759 269.263 402.657 257.744 402.657 257.746 432.76"/>
  <path d="m407.98,654.77l12.34,-0.74l0,5.29l11.72,8.1a3.3,3.3 0 0 1 -1.87,6.02l-14.69,0l-2.53,-5.23l-0.99,5.23l-5.54,0l1.56,-18.67z" fill="#2f2e41" id="svg_5" transform="translate(-152.87546 -225.8589)"/>
  <polygon fill="#ffb6b6" id="svg_6" points="212.62 432.76 220.425 432.759 224.137 402.657 212.619 402.657 212.62 432.76"/>
  <path d="m362.85,654.77l12.34,-0.74l0,5.29l11.73,8.1a3.3,3.3 0 0 1 -1.88,6.02l-14.68,0l-2.54,-5.23l-0.98,5.23l-5.54,0l1.55,-18.67z" fill="#2f2e41" id="svg_7" transform="translate(-152.87546 -225.8589)"/>
  <path d="m403.67,355.43l-16.17,0.32l-11.41,12.04l-9.15,1.35a18.27,18.27 0 0 0 -15.57,16.89l0,0l1.58,8.71l9.51,0l5.5,32.3c-2.14,5.45 -2.28,9.76 2.11,11.45l13.63,25.67l40.26,-18.07c2.04,-3.51 2.7,-7.03 0.61,-10.46l2.88,-49.45l9.67,0l0,0c0,-9.25 -3.12,-17.05 -12.32,-18.07a108.65,108.65 0 0 0 -10.98,-0.63l-10.15,-12.05z" fill="#e6e6e6" id="svg_8" transform="translate(-152.87546 -225.8589)"/>
  <path d="m423.96,446.09s-39.31,6.98 -53.89,-7.6c0,0 -1.48,2.51 -3.71,6.68c-0.64,1.2 -1.88,2.01 -2.63,3.46c-0.68,1.32 -2.43,2.94 -3.17,4.44c-0.6,1.2 0.36,2.78 -0.26,4.08c-7.47,15.66 -16.19,37.76 -14.32,52.35c1.2,9.4 3.69,31.3 6.32,54.81c0.2,1.84 -1.46,4.2 -1.25,6.05c0.19,1.75 2.25,2.98 2.45,4.73c0.13,1.17 -1.31,2.35 -1.18,3.51c0.14,1.28 1.85,2.52 1.99,3.79c3.59,32.47 6.88,62.78 6.88,62.78l18.39,0l3.47,-69.23l-2.84,-25.23l6.66,-51.04l9.19,48.5l1.19,27.3l9.71,70.97l17,0l0,-68.71l1.27,-3.57l-1.27,-4.57l1.27,-4.94l-1.27,-5.37l0,-113.19z" fill="#2f2e41" id="svg_9" transform="translate(-152.87546 -225.8589)"/>
  <path d="m408.63,346.05a18.33,18.33 0 1 1 3.18,-15.31c0.05,0.22 0.1,0.44 0.14,0.67a18.3,18.3 0 0 1 -3.32,14.64z" fill="#ffb6b6" id="svg_10" transform="translate(-152.87546 -225.8589)"/>
  <path d="m404.81,335.6a9.63,9.63 0 0 0 -2.81,-5.11a13.14,13.14 0 0 1 -0.76,5.51a25.4,25.4 0 0 1 -13.96,-2.76c-3.23,-2.19 -7.35,-2 -12.14,0a17.75,17.75 0 0 1 17.75,-17.75l3.17,0a17.76,17.76 0 0 1 17.76,17.75a52.85,52.85 0 0 1 -9.01,2.36z" fill="#2f2e41" id="svg_11" transform="translate(-152.87546 -225.8589)"/>
  <circle cx="113.25" cy="285" fill="#f0f0f0" id="svg_12" r="51"/>
  <circle cx="438.25" cy="51" fill="#f0f0f0" id="svg_13" r="51"/>
  <circle cx="843.25" cy="293" fill="#f0f0f0" id="svg_14" r="51"/>
  <path d="m530.24,56.56l0,115.65a9.12,9.12 0 0 1 -9.02,9.12a0.8,0.8 0 0 1 -0.1,0l-13.46,0a40.61,40.61 0 0 1 -40.61,-40.61l0,-84.16a9.12,9.12 0 0 1 9.13,-9.12l5.45,0c-2.52,7.37 31.77,10.47 33.65,0l5.84,0a9.12,9.12 0 0 1 9.12,9.12z" fill="#ffc536" id="svg_15"/>
  <path d="m643.18,264.65a1.2,1.2 0 0 1 1.2,-1.2l8.13,0a1.2,1.2 0 0 1 0,2.4l-8.13,0a1.2,1.2 0 0 1 -1.2,-1.2z" fill="#3f3d56" id="svg_16" transform="translate(-152.87546 -225.8589)"/>
  <path d="m676.79,421.86l-51.41,0a15.06,15.06 0 0 1 -15.05,-15.05l0,-80.84a2.19,2.19 0 0 1 -0.91,-1.78l0,-8.13a2.19,2.19 0 0 1 0.91,-1.78l0,-2.18a2.19,2.19 0 0 1 -0.91,-1.78l0,-8.13a2.19,2.19 0 0 1 0.91,-1.78l0,-3.94a2.18,2.18 0 0 1 -1.15,-1.93l0,-8.13a2.18,2.18 0 0 1 1.15,-1.93l0,-10.81a15.06,15.06 0 0 1 15.05,-15.04l51.41,0a15.06,15.06 0 0 1 15.05,15.04l0,23.56a1.89,1.89 0 0 1 0.89,1.6l0,15.5a1.89,1.89 0 0 1 -0.89,1.6l0,90.88a15.06,15.06 0 0 1 -15.05,15.05zm-51.41,-161.23a13.06,13.06 0 0 0 -13.05,13.04l0,12.51l-0.96,0.04a0.2,0.2 0 0 0 -0.19,0.19l0,8.13a0.2,0.2 0 0 0 0.19,0.19l0.96,0.04l0,7.05l-0.76,0.19a0.2,0.2 0 0 0 -0.15,0.18l0,8.13a0.2,0.2 0 0 0 0.15,0.19l0.76,0.19l0,4.99l-0.76,0.19a0.2,0.2 0 0 0 -0.15,0.18l0,8.13a0.2,0.2 0 0 0 0.15,0.19l0.76,0.19l0,82.24a13.06,13.06 0 0 0 13.05,13.05l51.41,0a13.06,13.06 0 0 0 13.05,-13.05l0,-92.59l0.89,0l0,-15.28l-0.89,0l0,-25.27a13.06,13.06 0 0 0 -13.05,-13.04l-51.41,0z" fill="#3f3d56" id="svg_17" transform="translate(-152.87546 -225.8589)"/>
  <circle cx="504.18" cy="38.79" fill="#3f3d56" id="svg_18" r="1.2"/>
  <path d="m396.96,496.26l-133.79,0a7.19,7.19 0 0 1 -7.17,-7.17l0,-65.19a7.19,7.19 0 0 1 7.17,-7.17l133.78,0a7.19,7.19 0 0 1 7.17,7.17l0,65.19a7.19,7.19 0 0 1 -7.16,7.17z" fill="#fff" id="svg_19" transform="translate(-152.87546 -225.8589)"/>
  <path d="m396.96,496.26l-133.79,0a7.19,7.19 0 0 1 -7.17,-7.17l0,-65.19a7.19,7.19 0 0 1 7.17,-7.17l133.78,0a7.19,7.19 0 0 1 7.17,7.17l0,65.19a7.19,7.19 0 0 1 -7.16,7.17zm-133.79,-77.53a5.19,5.19 0 0 0 -5.17,5.17l0,65.19a5.18,5.18 0 0 0 5.17,5.17l133.78,0a5.19,5.19 0 0 0 5.17,-5.17l0,-65.19a5.19,5.19 0 0 0 -5.17,-5.17l-133.78,0z" fill="#3f3d56" id="svg_20" transform="translate(-152.87546 -225.8589)"/>
  <path d="m184.35,260.77c-26.38,0 -53.9,-0.25 -64.16,-0.42a5.18,5.18 0 0 1 -5.07,-5.15l0,-53.96a1.83,1.83 0 0 1 1.82,-1.83l120.48,0a1.83,1.83 0 0 1 1.82,1.82l0,36.61a22.84,22.84 0 0 1 -22.45,22.75c-9.57,0.13 -20.9,0.18 -32.44,0.18z" fill="#ffc536" id="svg_21"/>
  <path d="m383.15,460.34l-108.86,0a4.44,4.44 0 0 1 -4.17,-2.94l-12.32,-34.56a4.42,4.42 0 0 1 4.16,-5.91l136.07,-0.19a4.42,4.42 0 0 1 4.36,5.2l0.11,0.04l-0.39,0.91l-0.01,0.01l-14.89,34.76a4.41,4.41 0 0 1 -4.06,2.68zm14.89,-41.6l-136.08,0.19a2.42,2.42 0 0 0 -2.27,3.24l12.32,34.56a2.43,2.43 0 0 0 2.28,1.61l108.86,0a2.41,2.41 0 0 0 2.22,-1.47l14.89,-34.75l0.74,0.31l-0.74,-0.31a2.42,2.42 0 0 0 -2.22,-3.38z" fill="#3f3d56" id="svg_22" transform="translate(-152.87546 -225.8589)"/>
  <circle cx="176.98" cy="233.48" fill="#fff" id="svg_23" r="8.52"/>
  <circle cx="498.98" cy="159.48" fill="#fff" id="svg_24" r="8.52"/>
  <path d="m974.25,508.98l-22.77,-22.48a11.88,11.88 0 0 0 -8.43,-3.46l-0.08,0a11.91,11.91 0 0 0 -8.46,3.56a27.99,27.99 0 0 0 -0.49,38.84c0.24,0.26 0.49,0.51 0.74,0.76a27.25,27.25 0 0 0 4.56,3.65a27.68,27.68 0 0 0 15.11,4.43l0.17,0a27.83,27.83 0 0 0 19.75,-8.32a12.02,12.02 0 0 0 -0.1,-16.98zm-1.32,15.57a26.09,26.09 0 0 1 -32.76,3.48a26.79,26.79 0 0 1 -4.01,-3.25a26,26 0 0 1 -0.23,-36.77a9.91,9.91 0 0 1 7.06,-2.97l0.06,0a9.91,9.91 0 0 1 7.02,2.88l22.77,22.49a10.01,10.01 0 0 1 0.09,14.14z" fill="#3f3d56" id="svg_25" transform="translate(-152.87546 -225.8589)"/>
  <path d="m899.54,435.2l-22.77,-22.49a11.93,11.93 0 0 0 -8.43,-3.46l-0.07,0a11.95,11.95 0 0 0 -8.47,3.57a28.08,28.08 0 0 0 -4.72,33l0.01,0.01a27.56,27.56 0 0 0 4.33,5.93c0.19,0.22 0.41,0.44 0.63,0.66a27.84,27.84 0 0 0 19.67,8.08l0.18,0a27.85,27.85 0 0 0 19.75,-8.33a12,12 0 0 0 -0.11,-16.97zm-1.32,15.57a25.86,25.86 0 0 1 -18.33,7.73l-0.17,0a26,26 0 0 1 -18.49,-44.27a10.01,10.01 0 0 1 14.14,-0.09l22.77,22.48a10.02,10.02 0 0 1 0.08,14.15z" fill="#3f3d56" id="svg_26" transform="translate(-152.87546 -225.8589)"/>
  <path d="m822.83,290.19l-25.1,-24.8a8.73,8.73 0 0 0 -12.33,0.08a22,22 0 1 0 31.3,30.92l6.13,-6.2z" fill="#ffc536" id="svg_27"/>
  <path d="m748.12,216.4l-25.1,-24.79a8.73,8.73 0 0 0 -12.33,0.08a22,22 0 1 0 31.31,30.91l6.12,-6.2z" fill="#ffc536" id="svg_28"/>
  <path d="m948.12,531.49l-0.6,1.58q-4.23,-1.61 -8.2,-3.22c-46.88,-19.13 -69.26,-41.52 -84.23,-84.02l-0.01,-0.01q-1.06,-3 -2.07,-6.14l1.58,-0.51a25.54,25.54 0 0 0 2.3,5.78q1.23,3.49 2.53,6.81c14.07,35.87 34.82,56.37 74.6,73.68q3,1.3 6.15,2.59a26.09,26.09 0 0 0 7.95,3.46z" fill="#3f3d56" id="svg_29" transform="translate(-152.87546 -225.8589)"/>
  <rect fill="#3f3d56" height="73" id="svg_30" transform="translate(-229.92517 559.82386) rotate(-45.35527)" width="2" x="900.62" y="448.54"/>
  <path d="m436.64,416.17l0.03,-32.86l-19.32,1.73l6.82,20.72l-24.75,37.52a8.17,8.17 0 1 0 9.89,6.89l27.33,-34z" fill="#ffb6b6" id="svg_31" transform="translate(-152.87546 -225.8589)"/>
 </g>
</svg>