<?xml version="1.0"?>
<svg width="833.22212" height="633.11008" xmlns="http://www.w3.org/2000/svg" xmlns:svg="http://www.w3.org/2000/svg" data-name="Layer 1">

 <g class="layer">
  <title>Layer 1</title>
  <path d="m954.31,708.91c-27.3,20.79 -60.56,41.85 -93.26,51.78a132.15,132.15 0 0 1 -29,5.61a87.68,87.68 0 0 1 -27.45,-2.13c-23.6,-5.87 -45.49,-16.15 -66.67,-28.16c-6.92,-3.93 -13.76,-8.04 -20.56,-12.24c-11.1,-6.86 -22.09,-13.96 -33.11,-20.89c-1.65,-1.05 -3.29,-2.08 -4.94,-3.1l-0.01,0q-3.99,-2.51 -8,-4.94c-0.47,-0.29 -0.94,-0.57 -1.42,-0.86q-7.57,-4.59 -15.41,-8.97c-0.64,-0.35 -1.28,-0.71 -1.92,-1.06a337.76,337.76 0 0 0 -31.12,-15.23c-6.98,-2.94 -14.05,-5.59 -21.19,-7.85l-0.01,0c-2.73,-0.86 -5.47,-1.67 -8.22,-2.41a172.03,172.03 0 0 0 -25.14,-4.92a137.46,137.46 0 0 0 -35.21,0.28c-0.79,0.11 -1.57,0.22 -2.36,0.35c-31.6,5.06 -60.44,22.12 -92.18,26.14c-1.03,0.13 -2.05,0.25 -3.08,0.34c-0.44,0.04 -0.88,0.09 -1.32,0.12a126.18,126.18 0 0 1 -27.68,-0.68c-25.63,-3.38 -50.59,-13.87 -73.06,-27.09c-52.53,-30.91 -95.13,-78.42 -121.03,-133.44a297.45,297.45 0 0 1 -11.83,-28.93a278.47,278.47 0 0 1 -15.67,-84.85c-2.43,-100.36 54.6,-201.05 144.14,-246.44c89.55,-45.39 207.35,-30.38 279.57,39.35c43.81,42.3 69.16,99.62 102.13,150.83c32.97,51.2 79.83,100.11 140.27,107.57c30.79,3.8 63.01,-3.55 92.52,6.01c16.34,5.3 30.28,15.44 41.51,28.36a127.19,127.19 0 0 1 18.78,29a141.93,141.93 0 0 1 8.73,23.54c0.41,1.49 0.79,2.98 1.16,4.47c14.7,60.04 -8.79,122.98 -57.96,160.44z" fill="#f2f2f2" id="svg_1" transform="translate(-183.38894 -133.44496)"/>
  <rect fill="#3f3d56" height="51" id="svg_2" rx="25.5" width="145" x="159.66" y="466.77"/>
  <path d="m434.05,638.22l0,42.43a125.55,125.55 0 0 1 -29,-0.56l0,-41.87l29,0z" fill="#3f3d56" id="svg_3" transform="translate(-183.38894 -133.44496)"/>
  <path d="m531.67,653.82c-0.79,0.11 -1.57,0.22 -2.36,0.35c-31.6,5.06 -60.44,22.12 -92.18,26.14c-1.03,0.13 -2.05,0.25 -3.08,0.34c-0.44,0.04 -0.88,0.09 -1.32,0.12c-7.75,-7.59 -15.5,-15.67 -22.78,-24.04c-3.95,-4.53 -7.77,-9.15 -11.36,-13.83c-9.32,-12.08 -17.22,-24.5 -22.44,-36.7c0.53,-5.85 -3.11,-19.38 -4.85,-29.74l-0.01,-0.01c-0.74,-4.35 -1.14,-8.13 -0.77,-10.56c2.12,-14.02 13.57,-12.41 17.09,-26.15a77.5,77.5 0 0 1 10.11,-7.11c0.59,-0.35 1.19,-0.7 1.81,-1.05l38.2,-26.4l14.6,14.32l22.22,21.8l24.08,23.61l-20.44,20.65s17.08,19.69 37.05,45.94c5.36,7.05 10.93,14.58 16.43,22.32z" fill="#2f2e41" id="svg_4" transform="translate(-183.38894 -133.44496)"/>
  <path d="m861.05,638.22l0,122.47a132.15,132.15 0 0 1 -29,5.61l0,-128.08l29,0z" fill="#3f3d56" id="svg_5" transform="translate(-183.38894 -133.44496)"/>
  <rect fill="#3f3d56" height="51" id="svg_6" rx="25.5" width="145" x="595.66" y="494.77"/>
  <path d="m669.89,693.98q-7.57,-4.59 -15.41,-8.97c-0.64,-0.35 -1.28,-0.71 -1.92,-1.06l3.44,-1.47l9.28,-3.99l0.09,-0.04l0.1,0.34l4.42,15.19z" fill="#ffb6b6" id="svg_7" transform="translate(-183.38894 -133.44496)"/>
  <path d="m684.26,702.88c-1.65,-1.05 -3.29,-2.08 -4.94,-3.1l-0.01,0q-3.99,-2.51 -8,-4.94c-0.47,-0.29 -0.94,-0.57 -1.42,-0.86q-7.57,-4.59 -15.41,-8.97c-0.64,-0.35 -1.28,-0.71 -1.92,-1.06a337.76,337.76 0 0 0 -31.12,-15.23c-6.98,-2.94 -14.05,-5.59 -21.19,-7.85l-0.01,0l-5.61,-9.39l-25.25,-42.29l-5.55,-9.29s-18.93,5.6 -45.72,10.97c-9.75,1.96 -20.53,3.88 -31.84,5.5c-12.09,1.72 -24.77,3.09 -37.37,3.75c-6.01,0.32 -12,0.48 -17.9,0.43c-15.25,-0.1 -29.9,-1.53 -42.73,-4.93c-4.28,-4.02 -17.18,-9.49 -26.42,-14.5l-0.01,0c-3.88,-2.1 -7.1,-4.11 -8.79,-5.9c-9.74,-10.3 -1.42,-18.33 -10.08,-29.57a78.02,78.02 0 0 1 0.63,-12.34c0.09,-0.68 0.18,-1.37 0.29,-2.07l2.73,-46.36l20.28,-2.68l30.86,-4.08l33.43,-4.42l3.68,28.82s26.03,-1.32 59.01,-0.88c52.97,0.72 123.85,6 133.45,28.66c0.9,2.13 1.8,4.28 2.7,6.43q3.21,7.71 6.36,15.5c7.61,18.8 14.87,37.78 21.5,55.72c4.12,11.16 8,21.92 11.57,31.99c2.87,8.1 5.53,15.76 7.96,22.81c2.22,6.44 4.23,12.37 6.02,17.69c0.28,0.83 0.55,1.65 0.82,2.44z" fill="#2f2e41" id="svg_8" transform="translate(-183.38894 -133.44496)"/>
  <path d="m497.71,421.99l-64.06,-54.4l41.68,-42.18l29.07,47.62l107.78,21.37a20.9,20.9 0 1 1 -2.97,30.68l-111.5,-3.09z" fill="#a0616a" id="svg_9" transform="translate(-183.38894 -133.44496)"/>
  <path d="m377.04,296.09c-7.4,24.08 63.1,81.52 63.1,81.52c0.79,-5.78 40.76,44.08 43.48,39.56c7.73,-12.83 16.23,-44.55 25.15,-48.61c5.11,-2.31 -24.17,-34.54 -24.17,-34.54s-14.93,-19.76 -34.65,-44.79a53.41,53.41 0 0 0 -47.08,-20.96s-18.42,3.74 -25.83,27.82z" fill="#3f3d56" id="svg_10" transform="translate(-183.38894 -133.44496)"/>
  <circle cx="224.83" cy="66.01" fill="#a0616a" id="svg_11" r="43.32"/>
  <path d="m429.88,271.41c9.33,5.55 14.91,15.75 18.12,26.12a247.52,247.52 0 0 1 10.63,59.14l3.39,60.09l41.93,127.94c-36.34,30.75 -172.92,6.99 -172.92,6.99s-4.2,-1.4 0,-5.59s8.27,-0.48 4.08,-4.67s-1.3,0.48 0.09,-3.71s0,-1.4 -1.39,-2.8s10.82,-13.97 10.82,-13.97l-11.18,-73.45l-13.98,-148.14c16.77,-20.96 50.5,-33.32 50.5,-33.32l8.71,-15.68l43.58,3.48l7.62,17.57z" fill="#3f3d56" id="svg_12" transform="translate(-183.38894 -133.44496)"/>
  <path d="m443.93,176.44a20.08,20.08 0 0 1 7.13,10.02a141.02,141.02 0 0 0 0.09,-19.66c-0.51,-4.6 -3.75,-5.64 -7.5,-6.84c-3.38,-1.08 -7.21,-2.31 -8.25,-6.77c-13.61,-13.25 -37.32,-12.58 -53.55,-7.96c-8.92,2.54 -14.06,5.81 -14.52,7.72l-0.1,0.4l-0.36,0.18c-6.88,3.44 -8.22,14.31 -8.13,22.81c0.17,16.04 5.7,34.24 8.82,35.72c0.17,0.08 0.21,0.05 0.28,-0.01l0,0c4.69,-3.75 10.42,0.29 12.94,2.48a45.06,45.06 0 0 1 40.35,-38.22a70.7,70.7 0 0 0 9.72,-1.63a20.47,20.47 0 0 1 4.97,-0.65a14.14,14.14 0 0 1 8.11,2.41z" fill="#2f2e41" id="svg_13" transform="translate(-183.38894 -133.44496)"/>
  <path d="m389.34,487.26l-13.26,-6.78a3.63,3.63 0 0 1 3.28,-6.4l13.25,6.79a3.63,3.63 0 0 1 -3.27,6.39z" fill="#6c63ff" id="svg_14" transform="translate(-183.38894 -133.44496)"/>
  <path d="m344.74,469.08l-21.81,-81.16l58.26,-11.03l-3.13,55.71l76.55,78.81a20.9,20.9 0 1 1 -19.88,23.56l-89.99,-65.89z" fill="#a0616a" id="svg_15" transform="translate(-183.38894 -133.44496)"/>
  <path d="m316.97,296.92c-19.77,15.61 5.61,102.93 5.61,102.93c3.93,-4.31 8.49,59.43 13.3,57.26c13.65,-6.17 38.67,-27.44 48.32,-25.71c5.51,0.99 -0.27,-42.16 -0.27,-42.16s-1.06,-24.74 -3.06,-56.55a53.41,53.41 0 0 0 -26.83,-44s-17.29,-7.39 -37.07,8.23z" fill="#3f3d56" id="svg_16" transform="translate(-183.38894 -133.44496)"/>
  <path d="m1002.38,520.46l-791.42,-0.9a297.45,297.45 0 0 1 -11.83,-28.93l784.47,0.83a127.19,127.19 0 0 1 18.78,29z" fill="#3f3d56" id="svg_17" transform="translate(-183.38894 -133.44496)"/>
  <path d="m750.31,730.28q-6.13,2.97 -12.38,5.73c-6.92,-3.93 -13.76,-8.04 -20.56,-12.24l25.22,-11.08l7.72,17.59z" fill="#ffb6b6" id="svg_18" transform="translate(-183.38894 -133.44496)"/>
  <path d="m934.19,592.48q-6.15,8.25 -12.69,16.17q-6.03,7.3 -12.38,14.33c-1.75,1.94 -3.52,3.87 -5.33,5.78q-4.99,5.35 -10.21,10.53c-6.26,1.97 -18.94,5.44 -32.53,8.68c-9.89,2.35 -20.26,4.58 -29,6a104.49,104.49 0 0 1 -14.81,1.58c-5.9,0.05 -11.89,-0.11 -17.9,-0.43c-6.78,-0.36 -13.57,-0.92 -20.28,-1.64c-17.45,-1.83 -34.35,-4.68 -48.93,-7.61c-5.34,-1.06 -10.36,-2.14 -14.98,-3.19c-8.75,-1.97 -16.07,-3.81 -21.37,-5.21c-5.97,-1.56 -9.37,-2.57 -9.37,-2.57l-14.95,25.04l-7.76,12.99l-5.7,9.55l-1.52,2.53c-0.64,-0.35 -1.28,-0.71 -1.92,-1.06a337.76,337.76 0 0 0 -31.12,-15.23c-6.98,-2.94 -14.05,-5.59 -21.19,-7.85l-0.01,0c-2.73,-0.86 -5.47,-1.67 -8.22,-2.41q1.29,-3.47 2.61,-6.98q2.46,-6.56 5.02,-13.23c3.69,-9.64 7.51,-19.42 11.44,-29.15c3.22,-7.99 6.5,-15.95 9.82,-23.8c1.53,-3.62 4.64,-6.8 8.99,-9.59a52.32,52.32 0 0 1 6.49,-3.48c12.45,-5.67 30.79,-9.36 51,-11.73c1.67,-0.19 3.35,-0.38 5.04,-0.56c16.73,-1.76 34.48,-2.67 51.08,-3.09c8.31,-0.21 16.33,-0.29 23.79,-0.3q3.62,0 7.03,0.02l0.01,0c6.15,0.03 11.81,0.12 16.79,0.22c0.97,0.02 1.91,0.05 2.83,0.07l0.01,0c0.62,0.01 1.23,0.03 1.83,0.04c10.89,0.28 17.57,0.62 17.57,0.62l2.59,-20.32l0.53,-4.1l0.5,-3.9l0,-0.01l0.06,-0.49l0.41,-0.01l7.2,-0.14l60.52,-1.18l33.06,-0.65l-5.24,22.46l-8.65,37.06c0.88,5.86 30.14,1.27 29.84,6.24z" fill="#2f2e41" id="svg_19" transform="translate(-183.38894 -133.44496)"/>
  <path d="m757.77,726.58c-2.47,1.26 -4.96,2.5 -7.46,3.7q-6.13,2.97 -12.38,5.73c-6.92,-3.93 -13.76,-8.04 -20.56,-12.24c-11.1,-6.86 -22.09,-13.96 -33.11,-20.89c-1.65,-1.05 -3.29,-2.08 -4.94,-3.1l-0.01,0c-4.54,-6.74 -9.17,-13.76 -13.84,-20.99c-0.07,-0.1 -0.13,-0.2 -0.19,-0.3q-1.8,-2.76 -3.58,-5.56c-7.47,-11.7 -14.98,-23.9 -22.27,-36.36l18.46,-8.62l34.32,-16.02l5.92,-2.76l17.02,33.51l15.18,29.89l3.38,6.65l24.06,47.36z" fill="#2f2e41" id="svg_20" transform="translate(-183.38894 -133.44496)"/>
  <path d="m762.95,565.69l87.5,-84.38l24.25,-68.67l-35.77,-15.55c-18.38,17.6 -38.24,72.42 -38.24,72.42l-60.21,76.6c-0.47,0.17 -0.94,0.34 -1.4,0.54a17.23,17.23 0 1 0 23.87,19.04z" fill="#ffb8b8" id="svg_21" transform="translate(-183.38894 -133.44496)"/>
  <path d="m828.86,404.75l45.38,14.41l0.17,-0.03c16.89,-2.83 30.9,-30.41 39.68,-53.05a31.6,31.6 0 0 0 -16.09,-40.03l0,0a31.67,31.67 0 0 0 -33.16,4.19l-23.3,19.04l-12.68,55.47z" fill="#6c63ff" id="svg_22" transform="translate(-183.38894 -133.44496)"/>
  <path d="m750.62,460.05l0.27,-0.35c14.15,-18.78 -5.21,-65.28 -8.14,-72.02l13.17,-3.9l-2.3,-25.06l-1.1,-11.18l10.23,-9.72l0.04,-0.25l7.04,-50.09l9.21,-33.15a73.28,73.28 0 0 0 -18.96,-71.54l-18.83,-18.69l-22.56,-35.31l-37.82,-0.97l-13.6,24.16a55.14,55.14 0 0 0 -44.1,55.17l1.28,64.32l-13.57,79.69l-0.38,14.47l-13.32,14.06l2.46,14.21l-9.96,3.97l-4.88,20.19c-1.86,2.33 -14.15,17.87 -14.26,22.2c-0.02,0.65 0.44,1.29 1.45,2.02c7.96,5.69 52.44,18.03 72.46,10.61c21.32,-7.89 104.9,6.93 105.74,7.08l0.43,0.08z" fill="#ffc536" id="svg_23" transform="matrix(1, 0, 0, 1, 0, 0)"/>
  <circle cx="696.48" cy="66.89" fill="#ffb8b8" id="svg_24" r="50.1"/>
  <path d="m873.76,251.1a136.27,136.27 0 0 0 23.18,-1.62c7.6,-1.54 24.6,-14 29.34,-21.5l0,0c3.52,-5.57 5.77,-14.26 7.04,-20.58a60.91,60.91 0 0 0 -10.66,-48.36a19.24,19.24 0 0 0 -7.77,-6.63c-0.28,-0.11 -0.56,-0.21 -0.85,-0.29a23.74,23.74 0 0 1 -11.82,-7.31a19.59,19.59 0 0 0 -1.96,-2.02a29.25,29.25 0 0 0 -12.2,-6.13c-7.26,-1.94 -17.75,-0.01 -31.2,5.74c-6.76,2.89 -14.15,1.84 -19.84,0.61a1.86,1.86 0 0 0 -1.75,0.6a13.13,13.13 0 0 1 -8.92,3.55c-2.03,0.09 -4.17,2.91 -6.74,6.58c-0.59,0.83 -1.27,1.8 -1.76,2.39l-0.07,-1.13l-1.15,1.26a15.93,15.93 0 0 0 7.2,25.96a31.08,31.08 0 0 0 6.25,1c1.28,0.12 2.6,0.23 3.87,0.45a24.02,24.02 0 0 1 17.85,15.6a6.28,6.28 0 0 0 9.48,3.05a10.38,10.38 0 0 1 9.46,-1.73a6.89,6.89 0 0 1 3.05,3.46a8.98,8.98 0 0 0 3.4,3.97c5.15,2.66 5.51,14.42 3.66,24.23c-1.78,9.45 -5.31,16.28 -8.57,16.62c-2.51,0.26 -2.8,0.44 -2.98,0.88l-0.16,0.4l0.28,0.37a10.26,10.26 0 0 0 4.34,0.58z" fill="#2f2e41" id="svg_25" transform="translate(-183.38894 -133.44496)"/>
  <path d="m841.3,389.61l-19.32,-38.52c-28.04,1.91 -83.69,34.34 -83.69,34.34l-105.3,22.32a19.02,19.02 0 1 0 5.19,32.51l133.94,-9.6l69.18,-41.05z" fill="#ffb8b8" id="svg_26" transform="translate(-183.38894 -133.44496)"/>
  <path d="m650.12,262.49l50.45,-37.5l8.89,-32.02a34.98,34.98 0 0 0 -10.52,-35.4l0,0a34.9,34.9 0 0 0 -47.62,1.54c-18.99,18.95 -40.65,45.39 -35.99,63.72l0.04,0.19l34.75,39.47z" fill="#ffc536" id="svg_27"/>
  <rect fill="#fff" height="18" id="svg_28" width="135" x="452.66" y="362.77"/>
  <rect fill="#fff" height="18" id="svg_29" width="135" x="107.66" y="362.77"/>
  <path d="m441.82,409.66l0,85.7a4.12,4.12 0 0 0 4.12,4.12l127,0a4.12,4.12 0 0 0 4.12,-4.12l0,-85.7a4.12,4.12 0 0 0 -4.12,-4.12l-127,0a4.12,4.12 0 0 0 -4.12,4.12z" fill="#3f3d56" id="svg_30" transform="translate(-183.38894 -133.44496)"/>
  <path d="m261.41,277.28l0,83.58a2.21,2.21 0 0 0 2.2,2.2l124.88,0a2.21,2.21 0 0 0 2.21,-2.2l0,-83.58a2.21,2.21 0 0 0 -2.21,-2.2l-124.88,0a2.21,2.21 0 0 0 -2.2,2.2z" fill="#ffc536" id="svg_31" transform="matrix(1, 0, 0, 1, 0, 0)"/>
  <path d="m439.16,512.07a2.47,2.47 0 0 0 1.94,0.93l136,0a2.5,2.5 0 0 0 2.44,-3.01l-2.11,-10.03a2.51,2.51 0 0 0 -1.56,-1.82a2.42,2.42 0 0 0 -0.88,-0.16l-131.78,0a2.42,2.42 0 0 0 -0.89,0.16a2.51,2.51 0 0 0 -1.56,1.82l-2.11,10.03a2.5,2.5 0 0 0 0.51,2.08z" fill="#2f2e41" id="svg_32" transform="translate(-183.38894 -133.44496)"/>
  <rect fill="#3f3d56" height="2.51" id="svg_33" rx="0.49" transform="translate(960.46258 868.63082) rotate(-180)" width="4.19" x="569.83" y="499.78"/>
  <rect fill="#3f3d56" height="2.51" id="svg_34" rx="0.49" transform="translate(943.70862 868.63082) rotate(-180)" width="4.19" x="561.45" y="499.78"/>
  <rect fill="#3f3d56" height="2.51" id="svg_35" rx="0.49" transform="translate(926.95465 868.63082) rotate(-180)" width="4.19" x="553.08" y="499.78"/>
  <rect fill="#3f3d56" height="2.51" id="svg_36" rx="0.49" transform="translate(910.20069 868.63082) rotate(-180)" width="4.19" x="544.7" y="499.78"/>
  <rect fill="#3f3d56" height="2.51" id="svg_37" rx="0.49" transform="translate(893.44673 868.63082) rotate(-180)" width="4.19" x="536.32" y="499.78"/>
  <rect fill="#3f3d56" height="2.51" id="svg_38" rx="0.49" transform="translate(876.69276 868.63082) rotate(-180)" width="4.19" x="527.95" y="499.78"/>
  <rect fill="#3f3d56" height="2.51" id="svg_39" rx="0.49" transform="translate(859.9388 868.63082) rotate(-180)" width="4.19" x="519.57" y="499.78"/>
  <rect fill="#3f3d56" height="2.51" id="svg_40" rx="0.49" transform="translate(843.18483 868.63082) rotate(-180)" width="4.19" x="511.19" y="499.78"/>
  <rect fill="#3f3d56" height="2.51" id="svg_41" rx="0.49" transform="translate(826.43087 868.63082) rotate(-180)" width="4.19" x="502.82" y="499.78"/>
  <rect fill="#3f3d56" height="2.51" id="svg_42" rx="0.49" transform="translate(809.67691 868.63082) rotate(-180)" width="4.19" x="494.44" y="499.78"/>
  <rect fill="#3f3d56" height="2.51" id="svg_43" rx="0.49" transform="translate(792.92294 868.63082) rotate(-180)" width="4.19" x="486.06" y="499.78"/>
  <rect fill="#3f3d56" height="2.51" id="svg_44" rx="0.49" transform="translate(776.16898 868.63082) rotate(-180)" width="4.19" x="477.68" y="499.78"/>
  <rect fill="#3f3d56" height="2.51" id="svg_45" rx="0.49" transform="translate(759.41502 868.63082) rotate(-180)" width="4.19" x="469.31" y="499.78"/>
  <rect fill="#3f3d56" height="2.51" id="svg_46" rx="0.49" transform="translate(742.66105 868.63082) rotate(-180)" width="4.19" x="460.93" y="499.78"/>
  <rect fill="#3f3d56" height="2.51" id="svg_47" rx="0.49" transform="translate(725.90709 868.63082) rotate(-180)" width="4.19" x="452.55" y="499.78"/>
  <rect fill="#3f3d56" height="2.51" id="svg_48" rx="0.49" transform="translate(709.15312 868.63082) rotate(-180)" width="4.19" x="444.18" y="499.78"/>
  <rect fill="#3f3d56" height="2.51" id="svg_49" rx="0.49" transform="translate(960.66055 877.00781) rotate(-180)" width="4.19" x="569.93" y="503.97"/>
  <rect fill="#3f3d56" height="2.51" id="svg_50" rx="0.49" transform="translate(943.90659 877.00781) rotate(-180)" width="4.19" x="561.55" y="503.97"/>
  <rect fill="#3f3d56" height="2.51" id="svg_51" rx="0.49" transform="translate(927.15262 877.00781) rotate(-180)" width="4.19" x="553.18" y="503.97"/>
  <rect fill="#3f3d56" height="2.51" id="svg_52" rx="0.49" transform="translate(910.39866 877.00781) rotate(-180)" width="4.19" x="544.8" y="503.97"/>
  <rect fill="#3f3d56" height="2.51" id="svg_53" rx="0.49" transform="translate(893.6447 877.00781) rotate(-180)" width="4.19" x="536.42" y="503.97"/>
  <rect fill="#3f3d56" height="2.51" id="svg_54" rx="0.49" transform="translate(876.89073 877.00781) rotate(-180)" width="4.19" x="528.05" y="503.97"/>
  <rect fill="#3f3d56" height="2.51" id="svg_55" rx="0.49" transform="translate(860.13677 877.00781) rotate(-180)" width="4.19" x="519.67" y="503.97"/>
  <rect fill="#3f3d56" height="2.51" id="svg_56" rx="0.49" transform="translate(843.38281 877.00781) rotate(-180)" width="4.19" x="511.29" y="503.97"/>
  <rect fill="#3f3d56" height="2.51" id="svg_57" rx="0.49" transform="translate(826.62884 877.00781) rotate(-180)" width="4.19" x="502.91" y="503.97"/>
  <rect fill="#3f3d56" height="2.51" id="svg_58" rx="0.49" transform="translate(809.87488 877.00781) rotate(-180)" width="4.19" x="494.54" y="503.97"/>
  <rect fill="#3f3d56" height="2.51" id="svg_59" rx="0.49" transform="translate(793.12091 877.00781) rotate(-180)" width="4.19" x="486.16" y="503.97"/>
  <rect fill="#3f3d56" height="2.51" id="svg_60" rx="0.49" transform="translate(776.36695 877.00781) rotate(-180)" width="4.19" x="477.78" y="503.97"/>
  <rect fill="#3f3d56" height="2.51" id="svg_61" rx="0.49" transform="translate(759.61299 877.00781) rotate(-180)" width="4.19" x="469.41" y="503.97"/>
  <rect fill="#3f3d56" height="2.51" id="svg_62" rx="0.49" transform="translate(742.85902 877.00781) rotate(-180)" width="4.19" x="461.03" y="503.97"/>
  <rect fill="#3f3d56" height="2.51" id="svg_63" rx="0.49" transform="translate(726.10506 877.00781) rotate(-180)" width="4.19" x="452.65" y="503.97"/>
  <rect fill="#3f3d56" height="2.51" id="svg_64" rx="0.49" transform="translate(709.3511 877.00781) rotate(-180)" width="4.19" x="444.28" y="503.97"/>
  <rect fill="#3f3d56" height="2.51" id="svg_65" rx="0.49" transform="translate(850.92209 887.06018) rotate(-180)" width="33.51" x="500.4" y="509"/>
 </g>
</svg>