<?xml version="1.0"?>
<svg width="885.55805" height="557.51874" xmlns="http://www.w3.org/2000/svg" xmlns:svg="http://www.w3.org/2000/svg" data-name="Layer 1">
 <title>heavy_box</title>

 <g class="layer">
  <title>Layer 1</title>
  <path d="m838.81,592.35c36.43,-91.07 25.41,-192.75 -21.57,-270.85l-491.77,68.09l471.27,-98.22c-198.62,-247.68 -585.21,-83.39 -547.95,229.33l590.02,71.65z" fill="#e6e6e6" id="svg_1" transform="translate(-157.22097 -171.24063)"/>
  <rect fill="#ffc536" height="195.1" id="svg_2" width="626.53" x="76.75" y="320.44"/>
  <path d="m408.71,467.89c5.62,4.37 7.67,5.78 8.87,5.6c58,16.89 7.15,36.68 -21.03,3.08l12.16,-8.68z" fill="#ffb8b8" id="svg_3" transform="translate(-157.22097 -171.24063)"/>
  <polygon fill="#ffb8b8" id="svg_4" points="60.099 475.093 60.099 514.747 88.649 513.161 80.719 471.921 60.099 475.093"/>
  <polygon fill="#ffb8b8" id="svg_5" points="218.713 475.093 218.713 514.747 190.162 513.161 198.093 471.921 218.713 475.093"/>
  <path d="m288.7,441.72l42.82,-1.58c98.8,103.57 61.43,79.94 58.69,222.06l-52.34,-15.87l11.1,-98.34c0.01,0 2.93,-1.95 0.5,-1.99c-15.2,5.22 -26.29,-59.44 -59.19,-51.94c-37.44,-1.79 -43.53,53.75 -58.69,53.93l11.11,98.34l-52.34,15.87c-5.87,-156.17 -34.59,-120.89 58.68,-222.06l39.66,1.58z" fill="#2f2e41" id="svg_6" transform="translate(-157.22097 -171.24063)"/>
  <path d="m225.25,673.3s-6.34,-12.69 -14.27,-6.35s-26.97,25.38 -26.97,25.38s-46,20.62 -17.45,33.31s52.35,-17.45 52.35,-17.45c27.19,-5.67 42.88,-9.3 28.45,-38.96c-8.18,3.54 -19.77,7.64 -22.11,4.07z" fill="#2f2e41" id="svg_7" transform="translate(-157.22097 -171.24063)"/>
  <path d="m368,673.3s6.35,-12.69 14.28,-6.35s26.96,25.38 26.96,25.38s46,20.62 17.45,33.31s-52.34,-17.45 -52.34,-17.45c-27.2,-5.67 -42.88,-9.3 -28.46,-38.96c8.19,3.54 19.77,7.64 22.11,4.07z" fill="#2f2e41" id="svg_8" transform="translate(-157.22097 -171.24063)"/>
  <path d="m331.52,262.49c-2.36,39.48 -56.25,36.01 -57.1,0c2.36,-39.49 56.25,-36.01 57.1,0z" fill="#ffb8b8" id="svg_9" transform="translate(-157.22097 -171.24063)"/>
  <path d="m290.28,283.11c13.88,41.94 -18.88,19.1 26.97,52.34l17.44,-34.89s-12.68,-4.76 -11.1,-22.21l-33.31,4.76z" fill="#ffb8b8" id="svg_10" transform="translate(-157.22097 -171.24063)"/>
  <path d="m375.93,306.9l-47.28,-10.79c1.33,28.51 -29.09,22.77 -34.4,8.43l-45.21,26.15c18.98,70.67 14.17,73.58 -11.1,118.96c-9.64,8.81 4.78,13.86 17.33,9.04c9.58,-5.91 14.44,-11.17 24.7,-9.83c48.49,10.1 88.85,12.48 95.24,8.53c2.28,-3.27 -0.07,-149.92 0.72,-150.49z" fill="#575a89" id="svg_11" transform="translate(-157.22097 -171.24063)"/>
  <path d="m363.24,310.07c1.59,0 9.76,-3.84 9.76,-3.84c23.77,-0.4 39.72,159.5 41,164.04l-15.86,11.11l-25.38,-65.04l-9.52,-106.27z" fill="#575a89" id="svg_12" transform="translate(-157.22097 -171.24063)"/>
  <path d="m252.21,495.65c0.82,5.99 2.2,73.21 26.28,41.81c3.16,-22.91 -7.58,-29.75 -10.41,-44.98l-15.87,3.17z" fill="#ffb8b8" id="svg_13" transform="translate(-157.22097 -171.24063)"/>
  <path d="m258.56,330.69l-4.86,-2.69c-13.03,-0.43 -8.92,34.06 -14.44,59.32c-4.5,29.42 -3.22,61.87 2.07,105.24c0.46,15.92 28.97,5.89 33.09,4.68c0,0 -9.52,-65.04 -4.76,-76.14s-11.1,-90.41 -11.1,-90.41z" fill="#575a89" id="svg_14" transform="translate(-157.22097 -171.24063)"/>
  <path d="m330.27,234.81a34.03,34.03 0 0 0 -19.35,-14.8l-5.92,4.74l2.3,-5.53a31.33,31.33 0 0 0 -5.85,-0.33l-5.32,6.84l2.2,-6.61c-22.85,2.45 -36.37,28.68 -24.51,47.04c1.83,-5.62 4.05,-10.9 5.88,-16.52a16.64,16.64 0 0 0 4.34,0.02l2.23,-5.19l0.62,4.97c6.9,-0.6 17.13,-1.92 23.67,-3.13l-0.63,-3.82l3.8,3.18c2.01,-0.47 3.2,-0.88 3.1,-1.2c4.87,7.84 9.69,12.85 14.55,20.69c1.85,-11.06 5.11,-20.26 -1.11,-30.35z" fill="#2f2e41" id="svg_15" transform="translate(-157.22097 -171.24063)"/>
  <rect fill="#fff" height="65.64" id="svg_16" width="138.37" x="527.41" y="343.98"/>
  <rect fill="#e6e6e6" height="7.87" id="svg_17" width="86.04" x="553.58" y="357.73"/>
  <rect fill="#e6e6e6" height="7.87" id="svg_18" width="86.04" x="553.58" y="372.86"/>
  <rect fill="#e6e6e6" height="7.87" id="svg_19" width="86.04" x="553.58" y="388"/>
  <polygon fill="#fff" id="svg_20" points="406.916 359.57 402.415 351.775 397.915 343.979 393.414 351.775 388.913 359.57 393.749 359.57 393.749 382.144 402.08 382.144 402.08 359.57 406.916 359.57"/>
  <circle cx="711.89" cy="483.13" fill="#3f3d56" id="svg_21" r="37.06"/>
  <circle cx="718.63" cy="483.13" fill="#e6e6e6" id="svg_22" r="16.42"/>
  <polygon fill="#3f3d56" id="svg_23" points="688.515 509.033 769.374 542.724 766.847 550.726 720.311 545.461 641.558 510.507 685.356 515.561 688.515 509.033"/>
  <path d="m917.21,712.45l100.57,-329.89l24.49,-43.49l0.08,-0.42c0.08,-0.38 1.88,-9.47 -2.54,-16.06a14.42,14.42 0 0 0 -9.74,-6.13c-13.52,-2.54 -43.76,-3.79 -45.04,-3.84l-0.24,-0.01l-0.24,0.04c-0.82,0.11 -20.15,2.93 -24.52,19.81l-21.02,38.26l-0.08,0.27l-95.18,312.91l5.24,1.59l95.09,-312.63l21.1,-38.39l0.08,-0.36c3.09,-12.69 17.86,-15.67 19.82,-16.01c3.09,0.14 31.51,1.4 43.98,3.74a9.03,9.03 0 0 1 6.19,3.79c2.73,4.03 2.04,9.98 1.8,11.54l-24.34,43.22l-0.08,0.29l-100.66,330.17l5.24,1.6z" fill="#3f3d56" id="svg_24" transform="translate(-157.22097 -171.24063)"/>
  <rect fill="#3f3d56" height="73.81" id="svg_25" transform="translate(233.46313 1119.54727) rotate(-79.76214)" width="5.47" x="965.01" y="374.71"/>
  <rect fill="#3f3d56" height="73.6" id="svg_26" transform="translate(157.9235 1129.12816) rotate(-78.46469)" width="5.47" x="951.12" y="420.4"/>
  <rect fill="#3f3d56" height="73.23" id="svg_27" transform="translate(-3.20879 1113.0217) rotate(-74.03214)" width="5.47" x="925.91" y="503.39"/>
  <polygon fill="#3f3d56" id="svg_28" points="784.589 511.372 786.585 506.273 718.249 479.515 714.893 443.181 778.675 467.004 799.338 496.902 803.843 493.79 782.201 462.476 708.64 435 713.108 483.382 784.589 511.372"/>
  <circle cx="808.33" cy="518.51" fill="#3f3d56" id="svg_29" r="37.06"/>
  <circle cx="818.01" cy="520.19" fill="#e6e6e6" id="svg_30" r="16.42"/>
 </g>
</svg>