<?xml version="1.0"?>
<svg width="804.47287" height="781.84651" xmlns="http://www.w3.org/2000/svg" xmlns:svg="http://www.w3.org/2000/svg" data-name="Layer 1">

 <g class="layer">
  <title>Layer 1</title>
  <path d="m756.86,215.79a380.7,380.7 0 0 0 -25.02,-39.27q-9.6,-13.22 -20.29,-25.56l-0.02,0a383.42,383.42 0 0 0 -41.94,-41.51q-4.61,-3.92 -9.35,-7.68a380.93,380.93 0 0 0 -93.88,-54.85l0.3,49.32l3.23,562.31l-279.96,0l-15.75,-561.25l1.17,-48.54c-137.25,57.73 -233.63,193.46 -233.63,351.71a381.69,381.69 0 0 0 12.4,96.79a375.14,375.14 0 0 0 12.65,39.41q2.67,7.02 5.64,13.91c0.96,2.24 1.93,4.46 2.93,6.67c1.3,2.89 2.64,5.77 4.02,8.61q1.61,3.36 3.3,6.67q2.18,4.34 4.5,8.62c1.2,2.24 2.43,4.46 3.68,6.67a382.93,382.93 0 0 0 76.15,95.24q12.95,11.75 26.96,22.28a381.45,381.45 0 0 0 458.3,0q7.62,-5.72 14.93,-11.82q4.85,-4.04 9.54,-8.23c0.83,-0.74 1.66,-1.48 2.48,-2.23a382.98,382.98 0 0 0 71.37,-87.01a374.26,374.26 0 0 0 19.32,-36.69q2.29,-4.97 4.43,-10.03a376.13,376.13 0 0 0 16.56,-47.59q1.03,-3.76 1.99,-7.55l0,0c0.11,-0.44 0.22,-0.89 0.33,-1.32c0.66,-2.66 1.29,-5.33 1.9,-8.01l0,-0.01q2.94,-12.93 4.96,-26.17c0.17,-1.13 0.34,-2.26 0.5,-3.39c0.07,-0.41 0.13,-0.82 0.17,-1.23l0,-0.01q1.45,-10.23 2.35,-20.61q1.39,-16.3 1.4,-32.97a379.63,379.63 0 0 0 -47.62,-184.68z" fill="#f2f2f2" id="svg_1" transform="matrix(1, 0, 0, 1, 0, 0)"/>
  <path d="m917.17,689.76c22.57,-30.5 31.25,-73.46 13.69,-107.1a174.83,174.83 0 0 1 -82.77,86.93c-14.29,7 -30.91,13.31 -37.53,27.78c-4.11,9.01 -3.33,19.64 -0.02,28.98c3.31,9.33 8.93,17.63 14.5,25.82l0.29,2.46c35.06,-14.54 69.26,-34.37 91.84,-64.87z" fill="#e6e6e6" id="svg_2" transform="translate(-197.76356 -59.07674)"/>
  <path d="m930.11,582.93a149.43,149.43 0 0 1 -31.08,86.53a64.35,64.35 0 0 1 -14.43,14.08a36.91,36.91 0 0 1 -18.45,6.07c-6.13,0.44 -12.45,0.18 -18.37,2.1a22.6,22.6 0 0 0 -13.52,12.6c-3.28,7.23 -3.76,15.21 -3.96,23.03c-0.22,8.68 -0.32,17.7 -4.41,25.59c-0.5,0.96 1.01,1.67 1.51,0.72c7.12,-13.73 2.5,-29.79 6.74,-44.22c1.98,-6.73 6.01,-12.91 12.73,-15.61c5.88,-2.36 12.4,-2.1 18.61,-2.49a39.38,39.38 0 0 0 18.26,-5.26a59.49,59.49 0 0 0 14.91,-13.48a144.98,144.98 0 0 0 22.72,-39.21a152.08,152.08 0 0 0 10.41,-50.59c0.03,-1.08 -1.63,-0.93 -1.67,0.14z" fill="#fff" id="svg_3" transform="translate(-197.76356 -59.07674)"/>
  <path d="m905.68,661.82a22.42,22.42 0 0 0 28.55,-5.25c0.68,-0.83 -0.59,-1.92 -1.27,-1.09a20.76,20.76 0 0 1 -26.57,4.82c-0.93,-0.54 -1.64,0.98 -0.71,1.52z" fill="#fff" id="svg_4" transform="translate(-197.76356 -59.07674)"/>
  <path d="m869.29,689.8a43.21,43.21 0 0 1 3.18,-31.33c0.5,-0.96 -1.02,-1.67 -1.51,-0.72a44.95,44.95 0 0 0 -3.25,32.61c0.3,1.04 1.87,0.47 1.58,-0.56z" fill="#fff" id="svg_5" transform="translate(-197.76356 -59.07674)"/>
  <path d="m925.48,617.31a12.69,12.69 0 0 1 -8.29,-8.73c-0.28,-1.05 -1.85,-0.48 -1.57,0.56a14.22,14.22 0 0 0 9.14,9.68a0.86,0.86 0 0 0 1.12,-0.4a0.84,0.84 0 0 0 -0.4,-1.11z" fill="#fff" id="svg_6" transform="translate(-197.76356 -59.07674)"/>
  <path d="m805.2,555.89c0.16,0.66 0.32,1.31 0.46,1.98a167.13,167.13 0 0 1 3.98,26.82c0.05,0.69 0.1,1.4 0.14,2.1a176.19,176.19 0 0 1 -8.41,64.32a171.1,171.1 0 0 1 -9.93,24.02c-5.41,10.7 -12.12,21.87 -13.64,33.38a29.35,29.35 0 0 0 -0.29,3.63l44.81,42.65c0.15,0.05 0.29,0.11 0.44,0.15l1.71,1.79c0.23,-0.39 0.46,-0.79 0.69,-1.18c0.14,-0.22 0.26,-0.45 0.39,-0.68c0.09,-0.15 0.18,-0.3 0.26,-0.43c0.03,-0.05 0.06,-0.1 0.08,-0.14c0.09,-0.13 0.15,-0.27 0.23,-0.39q1.94,-3.38 3.84,-6.81c0.01,-0.01 0.01,-0.01 0,-0.03c9.6,-17.43 17.83,-35.81 23,-54.86c0.15,-0.57 0.32,-1.15 0.45,-1.74a163.27,163.27 0 0 0 4.72,-26.23a144.34,144.34 0 0 0 0.62,-14.59a120.03,120.03 0 0 0 -6.24,-37c-7.99,-23.79 -23.5,-44.75 -45.61,-55.92c-0.56,-0.29 -1.12,-0.56 -1.7,-0.84z" fill="#e6e6e6" id="svg_7" transform="translate(-197.76356 -59.07674)"/>
  <path d="m804.76,556.56a149.43,149.43 0 0 1 27.28,87.8a64.35,64.35 0 0 1 -3.04,19.93a36.91,36.91 0 0 1 -11.08,15.95c-4.63,4.05 -9.83,7.65 -13.4,12.74a22.6,22.6 0 0 0 -3.21,18.2c1.74,7.75 6.16,14.41 10.7,20.77c5.05,7.07 10.41,14.33 11.89,23.09c0.18,1.06 1.82,0.72 1.64,-0.34c-2.58,-15.25 -15.94,-25.28 -21.24,-39.36c-2.47,-6.57 -2.98,-13.92 0.76,-20.13c3.28,-5.42 8.64,-9.14 13.36,-13.19a39.38,39.38 0 0 0 11.42,-15.19a59.49,59.49 0 0 0 3.79,-19.75a144.98,144.98 0 0 0 -5.48,-44.98a152.08,152.08 0 0 0 -22.14,-46.66c-0.62,-0.88 -1.86,0.24 -1.25,1.12z" fill="#fff" id="svg_8" transform="translate(-197.76356 -59.07674)"/>
  <path d="m832.75,634.25a22.42,22.42 0 0 0 19.64,-21.38c0.04,-1.07 -1.63,-1.18 -1.67,-0.1a20.76,20.76 0 0 1 -18.31,19.84c-1.07,0.13 -0.72,1.77 0.34,1.64z" fill="#fff" id="svg_9" transform="translate(-197.76356 -59.07674)"/>
  <path d="m820.54,678.5a43.21,43.21 0 0 1 -16.32,-26.93c-0.18,-1.06 -1.82,-0.72 -1.64,0.34a44.95,44.95 0 0 0 17.04,27.99c0.86,0.65 1.78,-0.75 0.92,-1.4z" fill="#fff" id="svg_10" transform="translate(-197.76356 -59.07674)"/>
  <path d="m821.76,586.8a12.69,12.69 0 0 1 -11.87,-1.99c-0.85,-0.66 -1.76,0.74 -0.92,1.4a14.22,14.22 0 0 0 13.13,2.22a0.86,0.86 0 0 0 0.65,-0.99a0.84,0.84 0 0 0 -0.99,-0.64z" fill="#fff" id="svg_11" transform="translate(-197.76356 -59.07674)"/>
  <path d="m215.57,518.93c-20.02,-32.23 -25.18,-75.76 -4.95,-107.85a174.83,174.83 0 0 0 75.44,93.36c13.67,8.15 29.72,15.78 35.14,30.74c3.37,9.31 1.72,19.85 -2.33,28.88c-4.06,9.04 -10.34,16.86 -16.56,24.57l-0.49,2.42c-33.75,-17.34 -66.23,-39.88 -86.25,-72.12z" fill="#e6e6e6" id="svg_12" transform="translate(-197.76356 -59.07674)"/>
  <path d="m211.35,411.4a149.43,149.43 0 0 0 23.95,88.77a64.35,64.35 0 0 0 13.23,15.21a36.91,36.91 0 0 0 17.9,7.55c6.07,0.94 12.39,1.19 18.14,3.59a22.6,22.6 0 0 1 12.45,13.66c2.68,7.47 2.51,15.46 2.07,23.27c-0.48,8.67 -1.12,17.66 2.32,25.86c0.42,0.99 -1.15,1.58 -1.57,0.59c-5.98,-14.26 -0.07,-29.88 -3.12,-44.61c-1.43,-6.88 -4.94,-13.36 -11.42,-16.6c-5.67,-2.83 -12.19,-3.09 -18.34,-3.99a39.38,39.38 0 0 1 -17.78,-6.73a59.49,59.49 0 0 1 -13.77,-14.65a144.98,144.98 0 0 1 -19.45,-40.92a152.08,152.08 0 0 1 -6.26,-51.28c0.05,-1.07 1.7,-0.78 1.65,0.29l0,-0.01z" fill="#fff" id="svg_13" transform="translate(-197.76356 -59.07674)"/>
  <path d="m229.29,492.01a22.42,22.42 0 0 1 -28.04,-7.54c-0.6,-0.89 0.75,-1.87 1.36,-0.99a20.76,20.76 0 0 0 26.09,6.97c0.97,-0.46 1.55,1.1 0.59,1.56z" fill="#fff" id="svg_14" transform="translate(-197.76356 -59.07674)"/>
  <path d="m263.28,522.86a43.21,43.21 0 0 0 -0.62,-31.48c-0.42,-1 1.15,-1.59 1.56,-0.59a44.95,44.95 0 0 1 0.59,32.76c-0.38,1.01 -1.9,0.32 -1.53,-0.69z" fill="#fff" id="svg_15" transform="translate(-197.76356 -59.07674)"/>
  <path d="m213.17,446.05a12.69,12.69 0 0 0 8.97,-8.03c0.36,-1.02 1.88,-0.32 1.52,0.68a14.22,14.22 0 0 1 -9.9,8.91a0.86,0.86 0 0 1 -1.08,-0.48a0.84,0.84 0 0 1 0.49,-1.08z" fill="#fff" id="svg_16" transform="translate(-197.76356 -59.07674)"/>
  <path d="m338.04,394.61c-0.21,0.64 -0.42,1.28 -0.62,1.93a167.13,167.13 0 0 0 -6.14,26.4c-0.11,0.69 -0.22,1.4 -0.31,2.09a176.19,176.19 0 0 0 3.15,64.79a171.1,171.1 0 0 0 7.95,24.75c4.52,11.1 10.3,22.78 10.88,34.38a29.35,29.35 0 0 1 -0.01,3.63l-48.12,38.88c-0.16,0.03 -0.3,0.08 -0.46,0.11l-1.85,1.64c-0.19,-0.4 -0.39,-0.82 -0.59,-1.22c-0.11,-0.24 -0.22,-0.48 -0.34,-0.71c-0.07,-0.16 -0.14,-0.32 -0.22,-0.46c-0.02,-0.05 -0.05,-0.1 -0.06,-0.15c-0.08,-0.13 -0.13,-0.27 -0.2,-0.4q-1.66,-3.53 -3.27,-7.1c-0.01,-0.01 -0.01,-0.01 -0.01,-0.03c-8.15,-18.15 -14.85,-37.14 -18.46,-56.54c-0.11,-0.59 -0.22,-1.18 -0.31,-1.78a163.27,163.27 0 0 1 -2.57,-26.52a144.34,144.34 0 0 1 0.57,-14.6a120.03,120.03 0 0 1 9.22,-36.37c9.9,-23.06 27.06,-42.69 50.01,-52.03c0.58,-0.24 1.16,-0.47 1.76,-0.69z" fill="#e6e6e6" id="svg_17" transform="translate(-197.76356 -59.07674)"/>
  <path d="m338.42,395.3a149.43,149.43 0 0 0 -34.32,85.3a64.35,64.35 0 0 0 1.41,20.11a36.91,36.91 0 0 0 9.74,16.8c4.29,4.41 9.19,8.42 12.33,13.79a22.6,22.6 0 0 1 1.72,18.4c-2.36,7.58 -7.31,13.86 -12.36,19.83c-5.6,6.63 -11.53,13.43 -13.72,22.05c-0.26,1.04 -1.87,0.57 -1.6,-0.47c3.8,-14.99 17.93,-23.91 24.36,-37.51c3,-6.35 4.1,-13.64 0.88,-20.12c-2.83,-5.67 -7.87,-9.81 -12.25,-14.23a39.38,39.38 0 0 1 -10.14,-16.08a59.49,59.49 0 0 1 -2.17,-19.98a144.98,144.98 0 0 1 9.11,-44.39a152.08,152.08 0 0 1 25.86,-44.71c0.69,-0.83 1.84,0.4 1.15,1.21z" fill="#fff" id="svg_18" transform="translate(-197.76356 -59.07674)"/>
  <path d="m304.22,470.47a22.42,22.42 0 0 1 -17.85,-22.9a0.84,0.84 0 0 1 1.68,0.02a20.76,20.76 0 0 0 16.64,21.27c1.05,0.22 0.57,1.82 -0.47,1.61z" fill="#fff" id="svg_19" transform="translate(-197.76356 -59.07674)"/>
  <path d="m312.79,515.57a43.21,43.21 0 0 0 18.45,-25.52c0.27,-1.04 1.87,-0.57 1.61,0.47a44.95,44.95 0 0 1 -19.26,26.51c-0.91,0.59 -1.71,-0.89 -0.8,-1.46z" fill="#fff" id="svg_20" transform="translate(-197.76356 -59.07674)"/>
  <path d="m319.02,424.06a12.69,12.69 0 0 0 12,-1.01c0.9,-0.59 1.7,0.88 0.8,1.47a14.22,14.22 0 0 1 -13.27,1.15a0.86,0.86 0 0 1 -0.57,-1.04a0.84,0.84 0 0 1 1.04,-0.57z" fill="#fff" id="svg_21" transform="translate(-197.76356 -59.07674)"/>
  <circle cx="389.44" cy="77.83" fill="#ff6584" id="svg_22" r="52.99"/>
  <path d="m749.43,134.14a194.73,194.73 0 0 0 -15.1,-14.33c-10.32,-8.75 -21.75,-16.19 -34.49,-20.88a79.53,79.53 0 0 0 -14.79,-3.9c-0.61,-0.1 -1.21,-0.2 -1.81,-0.28a0.67,0.67 0 0 0 -0.14,0a1.61,1.61 0 0 0 -0.28,-0.05c-1.24,-0.16 -2.48,-0.28 -3.73,-0.37a64.57,64.57 0 0 0 -20,1.8a66.52,66.52 0 0 0 -11.05,3.85a98.95,98.95 0 0 0 -10.37,5.87a62.29,62.29 0 0 1 -5.53,2.99a68.93,68.93 0 0 1 -17.38,5.56a78.04,78.04 0 0 1 -12.3,1.21c-3.58,0.07 -6.96,0.2 -10.36,1.49a24.82,24.82 0 0 0 -15.12,16.39a1.6,1.6 0 0 0 0.71,1.75c0.92,0.66 1.81,1.41 2.78,2a8.73,8.73 0 0 0 2.71,0.74q2.3,0.48 4.61,0.93q8.49,1.69 17.05,2.99q17.22,2.61 34.64,3.67a1.73,1.73 0 0 0 0.21,0.02a389.85,389.85 0 0 0 39.4,0.38c1.99,-0.08 3.97,-0.17 5.96,-0.29q12.42,-0.7 24.78,-2.19q11.43,-1.39 22.77,-3.45q8.11,-1.47 16.15,-3.28a1.58,1.58 0 0 0 0.68,-2.62z" fill="#e6e6e6" id="svg_23" transform="translate(-197.76356 -59.07674)"/>
  <path d="m639.3,204.8a173.07,173.07 0 0 0 -25.23,-22.22c-3.02,-2.12 -6.14,-4.12 -9.34,-5.94a98.91,98.91 0 0 0 -12.19,-5.97c-0.94,-0.38 -1.88,-0.75 -2.83,-1.09a78.99,78.99 0 0 0 -16.6,-4.17c-0.05,-0.01 -0.09,0 -0.14,-0.01c-0.08,-0.02 -0.18,-0.04 -0.27,-0.06a61.35,61.35 0 0 0 -8.29,-0.5c-1.99,0 -3.99,0.1 -5.97,0.3a65.95,65.95 0 0 0 -9.48,1.64c-1.54,0.38 -3.07,0.83 -4.58,1.34a65.44,65.44 0 0 0 -6.46,2.51c-0.04,0.02 -0.07,0.03 -0.1,0.04a96.29,96.29 0 0 0 -10.27,5.83c-0.07,0.05 -0.15,0.09 -0.22,0.14a64.77,64.77 0 0 1 -11.84,5.54a72.09,72.09 0 0 1 -10.86,2.87a76.88,76.88 0 0 1 -12.3,1.21c-3.58,0.07 -6.96,0.19 -10.35,1.49a24.83,24.83 0 0 0 -15.13,16.39a1.61,1.61 0 0 0 0.71,1.75c0.92,0.66 1.82,1.4 2.78,1.99a8.55,8.55 0 0 0 2.71,0.74c1.53,0.32 3.07,0.64 4.61,0.94q8.49,1.69 17.06,2.98q11.75,1.78 23.6,2.85q5.62,0.52 11.24,0.85q14.43,0.87 28.88,0.68q2.99,-0.04 5.97,-0.14q17.7,-0.52 35.3,-2.65a388.26,388.26 0 0 0 38.91,-6.73a1.57,1.57 0 0 0 0.68,-2.6z" fill="#e6e6e6" id="svg_24" transform="translate(-197.76356 -59.07674)"/>
  <path d="m507.23,62.59l46.68,645.06l-93.36,8.29l0,-645.14c11.13,-8.69 27.1,-10.05 46.68,-8.21z" fill="#ccc" id="svg_25" transform="translate(-197.76356 -59.07674)"/>
  <path d="m737.65,62.59l-46.68,645.06l93.36,8.29l0,-645.14c-11.13,-8.69 -27.1,-10.05 -46.68,-8.21z" fill="#ccc" id="svg_26" transform="translate(-197.76356 -59.07674)"/>
  <path d="m786.52,71.08c-2.89,-7.1 -9.05,-12 -16.18,-12l-296.8,0c-9.9,0 -17.95,9.5 -17.95,21.19l0,641.13a22.91,22.91 0 0 0 6.18,16a17.01,17.01 0 0 0 7.78,4.66a14.84,14.84 0 0 0 3.99,0.53l296.8,0a14.84,14.84 0 0 0 4,-0.53c7.98,-2.15 13.96,-10.59 13.96,-20.66l0,-641.13a24.34,24.34 0 0 0 -1.78,-9.19zm-4.18,650.32c0,7.81 -5.38,14.17 -12,14.17l-296.8,0c-5.48,0 -10.13,-4.37 -11.54,-10.32a16.45,16.45 0 0 1 -0.46,-3.85l0,-641.13c0,-7.81 5.39,-14.15 12,-14.15l296.8,0a10.18,10.18 0 0 1 3.57,0.64c4.87,1.79 8.43,7.16 8.43,13.51l0,641.13z" fill="#ccc" id="svg_27" transform="translate(-197.76356 -59.07674)"/>
  <rect fill="#ccc" height="5.96" id="svg_28" width="326.75" x="260.8" y="194.88"/>
  <rect fill="#ccc" height="5.96" id="svg_29" width="326.75" x="260.8" y="71.87"/>
  <rect fill="#ccc" height="5.96" id="svg_30" width="326.75" x="260.8" y="294.2"/>
  <rect fill="#ccc" height="375.94" id="svg_31" width="5.96" x="360.88" y="2.67"/>
  <rect fill="#ccc" height="375.94" id="svg_32" width="5.96" x="481.52" y="2.67"/>
  <path d="m822.56,705.35l-391.31,0a26.84,26.84 0 0 0 -26.81,26.82a26.54,26.54 0 0 0 1.93,9.97a26.81,26.81 0 0 0 24.88,16.85l391.31,0a26.81,26.81 0 0 0 23.14,-13.28a25.89,25.89 0 0 0 1.75,-3.57a26.54,26.54 0 0 0 1.93,-9.97a26.85,26.85 0 0 0 -26.82,-26.82z" fill="#ccc" id="svg_33" transform="translate(-197.76356 -59.07674)"/>
  <rect fill="#ccc" height="19.86" id="svg_34" width="324.77" x="262.79" y="364.71"/>
  <path d="m422.19,358.75l5.96,0a10.92,10.92 0 0 1 10.93,10.93l0,0a0,0 0 0 1 0,0l-27.81,0a0,0 0 0 1 0,0l0,0a10.92,10.92 0 0 1 10.92,-10.93z" fill="#ccc" id="svg_35"/>
  <circle cx="430.9" cy="359.19" data-name="ab6171fa-7d69-4734-b81c-8dff60f9761b" fill="#ffb8b8" id="b6ad44ff-295b-418b-9346-03b76e49c34f" r="61.55"/>
  <path d="m560.01,359.05c0.46,-7.07 5.14,-14.3 19.99,-18.08c0,0 25.48,-32.59 60.11,-15.5c0,0 16.79,-2.88 29.24,14.53c0,0 12.35,-7.28 17.55,5.63c0,0 14.48,26.32 9.15,53.17s-8.06,30.19 -8.06,30.19s6.8,-55.53 -32.33,-51.68s-70.63,-9.91 -79.49,20.22c-7.36,25.02 -6.43,38.01 -6.43,38.01s-24.61,-24.96 -16.24,-44.61c4.28,-10.05 5.79,-20.98 6.51,-31.88z" data-name="bf427902-b9bf-4946-b5d7-5c1c7e04535e" fill="#2f2e41" id="e8f77054-5a04-4fda-83df-6cd2e0c3cac3-1677" transform="translate(-197.76356 -59.07674)"/>
  <path d="m263.53,695.54l340.44,0c-2.27,-25.97 -3.76,-125.24 -3.76,-131.77c0,-28.81 -23.58,-60.26 -23.58,-60.26l-8.44,-4.67l-70.48,-21.99l-18.24,-23.69a20.28,20.28 0 0 0 -16.25,-7.93l-57.62,0.43a20.34,20.34 0 0 0 -13.66,5.42l-35.68,33.09l-52.33,24.99l-0.09,-0.08l-0.55,0.4l-7.76,5.6l-5,3.61s-13.1,15.72 -23.58,62.88c-1.57,7.09 -2.68,98.91 -3.42,113.97z" fill="#ffc536" id="svg_36"/>
  <path d="m880.53,742.14c-0.82,0.75 -1.65,1.49 -2.48,2.23q-4.71,4.18 -9.55,8.23q-7.31,6.09 -14.93,11.82l-458.29,0q-14,-10.5 -26.97,-22.28l512.22,0z" fill="#ccc" id="svg_37" transform="translate(-197.76356 -59.07674)"/>
  <polygon fill="#2f2e41" id="svg_38" points="514.774 688.412 346.303 688.412 349.868 671.476 511.208 671.476 514.774 688.412"/>
  <path d="m864.95,674.4l-43.83,0a6.77,6.77 0 0 0 -5.2,2.4a9.83,9.83 0 0 0 -1.85,-0.18a10.4,10.4 0 1 0 0,20.8a10.28,10.28 0 0 0 4.52,-1.05l0.73,8.98l2.91,35.52a6.48,6.48 0 0 0 0.55,1.27a6.83,6.83 0 0 0 6,3.57l28.51,0a6.86,6.86 0 0 0 6.01,-3.57a7.03,7.03 0 0 0 0.54,-1.27l7.67,-57.61a6.85,6.85 0 0 0 -6.56,-8.86zm-50.88,20.05a7.43,7.43 0 0 1 0,-14.86c0.13,0 0.25,0.04 0.39,0.05a6.81,6.81 0 0 0 0.11,3.62l3.13,10.2a7.31,7.31 0 0 1 -3.63,0.99z" fill="#3f3d56" id="svg_39" transform="translate(-197.76356 -59.07674)"/>
  <path d="m765.94,485.93l-277.5,0a9.01,9.01 0 0 0 -9,8.99l0,187.27a9,9 0 0 0 9,8.99l277.5,0a9,9 0 0 0 8.99,-8.99l0,-187.27a9.01,9.01 0 0 0 -8.99,-8.99z" fill="#3f3d56" id="svg_40" transform="translate(-197.76356 -59.07674)"/>
  <path d="m658.44,635.98l-64.92,0a3.46,3.46 0 0 0 -3.46,3.46l0,102.56l71.85,0l0,-102.56a3.47,3.47 0 0 0 -3.47,-3.46zm-32.24,58.27a7.7,7.7 0 0 1 -7.67,-7.67l0,-11.83a7.67,7.67 0 0 1 15.33,0l0,11.83a7.7,7.7 0 0 1 -7.66,7.67z" fill="#2f2e41" id="svg_41" transform="translate(-197.76356 -59.07674)"/>
  <path d="m589.84,738.72l0,9.89a1.94,1.94 0 0 0 1.93,1.94l68.43,0a1.94,1.94 0 0 0 1.93,-1.94l0,-9.89l-72.29,0z" fill="#3f3d56" id="svg_42" transform="translate(-197.76356 -59.07674)"/>
  <circle cx="562.28" cy="616.77" fill="#2f2e41" id="svg_43" r="4.38"/>
  <path d="m523.47,669.49a1.53,1.53 0 0 0 -1.54,1.54l0,7.88a1.53,1.53 0 0 0 3.07,0l0,-7.88a1.53,1.53 0 0 0 -1.53,-1.54z" fill="#2f2e41" id="svg_44" transform="translate(-197.76356 -59.07674)"/>
  <path d="m531.79,669.49a1.53,1.53 0 0 0 -1.53,1.54l0,7.88a1.53,1.53 0 0 0 3.07,0l0,-7.88a1.53,1.53 0 0 0 -1.54,-1.54z" fill="#2f2e41" id="svg_45" transform="translate(-197.76356 -59.07674)"/>
  <path d="m540.12,669.49a1.53,1.53 0 0 0 -1.54,1.54l0,7.88a1.53,1.53 0 0 0 3.07,0l0,-7.88a1.53,1.53 0 0 0 -1.53,-1.54z" fill="#2f2e41" id="svg_46" transform="translate(-197.76356 -59.07674)"/>
  <path d="m548.44,669.49a1.53,1.53 0 0 0 -1.53,1.54l0,7.88a1.53,1.53 0 0 0 3.07,0l0,-7.88a1.53,1.53 0 0 0 -1.54,-1.54z" fill="#2f2e41" id="svg_47" transform="translate(-197.76356 -59.07674)"/>
  <circle cx="357.32" cy="660.78" fill="#ffb8b8" id="svg_48" r="23.18"/>
  <circle cx="519.23" cy="665.24" fill="#ffb8b8" id="svg_49" r="23.18"/>
  <path d="m956.21,444.57c-2.29,-3.79 -5,-7.83 -9.25,-9.07c-4.92,-1.43 -9.98,1.42 -14.27,4.22a415.72,415.72 0 0 0 -37,27.26l0.02,0.15c9.2,-0.63 16.84,23.83 26.04,23.2c6.65,-0.46 15.09,-26.08 20.97,-29.23c2.23,-1.19 4.4,-2.79 6.93,-2.9c3.14,-0.14 5.87,2.06 8.02,4.35c12.73,13.54 16.41,34.26 30.68,46.17a453,453 0 0 0 -32.14,-64.15z" fill="#3f3d56" id="svg_50" transform="translate(-197.76356 -59.07674)"/>
  <path d="m980.7,477.48q10.07,18.18 21.36,35.65l0,0.01c-0.05,0.41 -0.11,0.82 -0.17,1.23q-1.36,-2.09 -2.7,-4.19q-10.14,-15.9 -19.26,-32.41q-4.34,-7.84 -8.46,-15.82q-3.18,-6.17 -6.23,-12.42c-0.58,-1.2 -1.14,-2.39 -1.7,-3.6c-1.32,-2.81 -2.62,-5.65 -4.01,-8.43c-1.59,-3.17 -3.52,-6.49 -6.44,-8.62a8.78,8.78 0 0 0 -4.57,-1.76a12.77,12.77 0 0 0 -6.62,1.9a213.15,213.15 0 0 0 -41.92,28.9a218.45,218.45 0 0 0 -34.05,37.81c-0.31,0.42 -1.02,0.01 -0.72,-0.42c1.21,-1.7 2.42,-3.36 3.67,-5.02a219.48,219.48 0 0 1 56.02,-52.25q5.44,-3.53 11.1,-6.73c1.9,-1.08 3.8,-2.14 5.75,-3.14a14.02,14.02 0 0 1 6.09,-1.89c7.4,-0.12 11.24,8.26 13.87,13.9q1.23,2.66 2.5,5.31q4.8,10.03 9.97,19.89q3.19,6.09 6.52,12.1z" fill="#3f3d56" id="svg_51" transform="translate(-197.76356 -59.07674)"/>
  <path d="m899.25,453.78c-0.43,-0.47 -0.86,-0.95 -1.29,-1.43c-3.41,-3.77 -7.07,-7.5 -11.75,-9.67a17.05,17.05 0 0 0 -7.15,-1.65a20.39,20.39 0 0 0 -7.42,1.62c-1.12,0.44 -2.21,0.95 -3.28,1.49c-1.23,0.62 -2.44,1.28 -3.64,1.94q-3.38,1.87 -6.68,3.91q-6.56,4.05 -12.71,8.73q-3.18,2.42 -6.24,5q-2.84,2.4 -5.57,4.92c-0.38,0.36 -0.96,-0.22 -0.58,-0.58c0.48,-0.44 0.97,-0.89 1.45,-1.32q2.06,-1.86 4.17,-3.64q3.87,-3.27 7.93,-6.27q6.32,-4.68 13.08,-8.73q3.37,-2.02 6.84,-3.87c0.7,-0.37 1.4,-0.74 2.12,-1.08a33.78,33.78 0 0 1 5.04,-2.05a17.92,17.92 0 0 1 7.6,-0.75a19.81,19.81 0 0 1 7.02,2.43c4.6,2.57 8.17,6.54 11.64,10.42c0.35,0.4 -0.23,0.98 -0.58,0.58z" fill="#3f3d56" id="svg_52" transform="translate(-197.76356 -59.07674)"/>
  <path d="m865.6,471.93a5.3,5.3 0 0 1 -3.29,-0.94c-2.55,-1.92 -2.48,-6.56 0.2,-14.15a15.98,15.98 0 0 1 8.66,-9.3a14.81,14.81 0 0 1 11.92,-0.07q0.5,0.21 0.98,0.46l0,0a35.13,35.13 0 0 1 6.1,4.32a40.3,40.3 0 0 0 5.08,3.76l0.59,0.35l-0.56,0.39c-14.44,10.17 -24.23,15.18 -29.68,15.18z" fill="#3f3d56" id="svg_53" transform="translate(-197.76356 -59.07674)"/>
  <path d="m921.12,411.44a20.51,20.51 0 0 1 -20.11,-16.53a20.5,20.5 0 1 0 24.18,16.12a20.59,20.59 0 0 1 -4.07,0.41z" fill="#3f3d56" id="svg_54" transform="translate(-197.76356 -59.07674)"/>
  <circle cx="174.55" cy="354.75" fill="#3f3d56" id="svg_55" opacity="0.74" r="30.59"/>
  <circle cx="205.15" cy="354.75" fill="#ffc536" id="svg_56" opacity="0.74" r="30.59"/>
  <circle cx="190.11" cy="330.36" fill="#ff6584" id="svg_57" opacity="0.74" r="30.59"/>
  <rect fill="#3f3d56" height="1.78" id="svg_58" transform="matrix(0.95403, -0.29972, 0.29972, 0.95403, -296.09811, 87.56435)" width="82.37" x="387.66" y="392.98"/>
  <circle cx="270.61" cy="322.16" fill="#3f3d56" id="svg_59" r="3.57"/>
  <path d="m978.54,541.68c5.23,3.68 10.25,7.43 15.99,10.27c-0.11,0.43 -0.23,0.88 -0.33,1.32c-0.71,-0.33 -1.39,-0.68 -2.08,-1.04c-5.82,-3.05 -10.83,-7.19 -16.3,-10.79a35.16,35.16 0 0 0 -8.78,-4.41a29,29 0 0 0 -10.05,-1.17c-14.15,0.69 -26.27,9.13 -39.42,13.39c-6.43,2.08 -13.28,3.2 -19.99,1.89c-6.71,-1.32 -12.68,-4.88 -18.6,-8.11c-5.85,-3.19 -12.22,-6.4 -19.05,-6.4c-5.56,0.01 -11.41,2.24 -14.39,7.16a0.67,0.67 0 0 1 -1.15,-0.68a14.03,14.03 0 0 1 2.43,-3.04c3.89,-3.68 9.6,-5.13 14.85,-4.7c6.8,0.55 12.99,3.76 18.87,6.98c6.23,3.43 12.61,7.11 19.81,7.86c7.11,0.75 14.16,-1.12 20.75,-3.62c12.78,-4.86 25.38,-12.95 39.59,-12.05c6.7,0.43 12.44,3.33 17.85,7.14z" fill="#3f3d56" id="svg_60" transform="translate(-197.76356 -59.07674)"/>
  <path d="m221.67,224.8l0,1.81a9.39,9.39 0 0 0 -1.82,-0.18l-9.32,0l0,20.02a11.18,11.18 0 0 1 -11.18,11.18l-13.78,0l0,3.08a9.34,9.34 0 0 0 0.72,3.61l-1.9,0a10.98,10.98 0 0 1 -0.6,-3.61l0,-3.08l-7.58,0l0,-1.78l7.58,0l0,-20.02a11.18,11.18 0 0 1 11.18,-11.18l13.78,0l0,-3.12l1.78,0l0,3.12l9.32,0a11.13,11.13 0 0 1 1.82,0.15z" fill="#ffc536" id="svg_61"/>
  <path d="m397.11,269.47l-24.88,0a11.18,11.18 0 0 0 -11.18,11.18l0,24.88a11.18,11.18 0 0 0 11.18,11.18l24.88,0a11.18,11.18 0 0 0 11.18,-11.18l0,-24.92a11.18,11.18 0 0 0 -11.18,-11.14zm9.4,36.06a9.41,9.41 0 0 1 -9.4,9.4l-24.88,0a9.41,9.41 0 0 1 -9.4,-9.4l0,-24.88a9.41,9.41 0 0 1 9.4,-9.4l24.88,0a9.41,9.41 0 0 1 9.4,9.36l0,24.92z" fill="#3f3d56" id="svg_62" transform="translate(-197.76356 -59.07674)"/>
  <path d="m381.55,314.93l0,1.78l1.78,0l0,-1.78l-1.78,0zm0,0l0,1.78l1.78,0l0,-1.78l-1.78,0zm37.88,-31.05a11.13,11.13 0 0 0 -1.82,-0.15l-24.88,0a11.18,11.18 0 0 0 -11.18,11.18l0,24.88a10.98,10.98 0 0 0 0.6,3.61a11.18,11.18 0 0 0 10.58,7.57l24.88,0a11.18,11.18 0 0 0 11.18,-11.18l0,-24.88a11.18,11.18 0 0 0 -9.36,-11.03zm7.58,35.91a9.41,9.41 0 0 1 -9.4,9.4l-24.88,0a9.41,9.41 0 0 1 -9.4,-9.4l0,-24.88a9.41,9.41 0 0 1 9.4,-9.4l24.88,0a9.4,9.4 0 0 1 9.4,9.4l0,24.88zm-45.46,-4.86l0,1.78l1.78,0l0,-1.78l-1.78,0z" fill="#3f3d56" id="svg_63" transform="translate(-197.76356 -59.07674)"/>
  <path d="m166.18,488.22l-105.71,0a2.78,2.78 0 0 0 -2.78,2.77l0,6.27a375.14,375.14 0 0 0 12.64,39.41l95.85,0a2.77,2.77 0 0 0 2.78,-2.77l0,-42.91a2.78,2.78 0 0 0 -2.78,-2.77z" fill="#ffc536" id="svg_64"/>
  <path d="m353.87,609.66l-80.13,0c0.95,2.24 1.92,4.46 2.93,6.67l77.2,0c4.35,0.06 4.31,-6.73 0,-6.67z" fill="#e4e4e4" id="svg_65" transform="translate(-197.76356 -59.07674)"/>
  <path d="m353.87,624.94l-73.18,0q1.6,3.36 3.3,6.67l69.88,0c4.35,0.06 4.31,-6.72 0,-6.67z" fill="#e4e4e4" id="svg_66" transform="translate(-197.76356 -59.07674)"/>
  <path d="m353.87,640.23l-65.38,0c1.19,2.24 2.42,4.46 3.67,6.67l61.71,0c4.35,0.06 4.31,-6.73 0,-6.67z" fill="#e4e4e4" id="svg_67" transform="translate(-197.76356 -59.07674)"/>
  <path d="m901.94,229.33l-0.51,0a10.21,10.21 0 0 1 4.56,1.08l-2.32,0a9.41,9.41 0 0 0 -9.39,9.39l0,24.89a9.41,9.41 0 0 0 9.39,9.4l1.48,0a10.22,10.22 0 0 1 -3.72,0.7l0.51,0a10.3,10.3 0 0 0 10.29,-10.28l0,-24.89a10.3,10.3 0 0 0 -10.29,-10.29z" fill="#3f3d56" id="svg_68" transform="translate(-197.76356 -59.07674)"/>
  <path d="m901.94,229.33l-0.51,0a10.21,10.21 0 0 1 4.56,1.08l-2.32,0a9.41,9.41 0 0 0 -9.39,9.39l0,24.89a9.41,9.41 0 0 0 9.39,9.4l1.48,0a10.22,10.22 0 0 1 -3.72,0.7l0.51,0a10.3,10.3 0 0 0 10.29,-10.28l0,-24.89a10.3,10.3 0 0 0 -10.29,-10.29z" id="svg_69" opacity="0.21" transform="translate(-197.76356 -59.07674)"/>
  <path d="m638.22,170.25l-0.51,0a10.21,10.21 0 0 1 4.55,1.08l-2.31,0a9.41,9.41 0 0 0 -9.39,9.39l0,24.89a9.41,9.41 0 0 0 9.39,9.4l1.48,0a10.22,10.22 0 0 1 -3.72,0.7l0.51,0a10.3,10.3 0 0 0 10.28,-10.28l0,-24.89a10.3,10.3 0 0 0 -10.28,-10.29z" fill="#f4ff63" id="svg_70" transform="matrix(1, 0, 0, 1, 0, 0)"/>
  <path d="m637.22,171.25l-0.51,0a10.21,10.21 0 0 1 4.55,1.08l-2.31,0a9.41,9.41 0 0 0 -9.39,9.39l0,24.89a9.41,9.41 0 0 0 9.39,9.4l1.48,0a10.22,10.22 0 0 1 -3.72,0.7l0.51,0a10.3,10.3 0 0 0 10.28,-10.28l0,-24.89a10.3,10.3 0 0 0 -10.28,-10.29z" fill="#ad8e45" id="svg_71" opacity="0.21" transform="matrix(1, 0, 0, 1, 0, 0)"/>
  <path d="m640.05,215.09a9.41,9.41 0 0 1 -9.39,-9.4l0,-24.89a9.41,9.41 0 0 1 9.39,-9.39l2.31,0a10.21,10.21 0 0 0 -4.55,-1.08l-24.89,0a10.3,10.3 0 0 0 -10.29,10.29l0,24.88a10.3,10.3 0 0 0 10.29,10.29l24.89,0a10.22,10.22 0 0 0 3.72,-0.71l-1.48,0.01z" fill="#ffc536" id="svg_72" transform="matrix(1, 0, 0, 1, 0, 0)"/>
  <path d="m903.77,274.17a9.41,9.41 0 0 1 -9.39,-9.4l0,-24.89a9.41,9.41 0 0 1 9.39,-9.39l2.32,0a10.21,10.21 0 0 0 -4.56,-1.08l-24.89,0a10.3,10.3 0 0 0 -10.28,10.29l0,24.88a10.3,10.3 0 0 0 10.28,10.29l24.89,0a10.22,10.22 0 0 0 3.72,-0.71l-1.48,0.01z" fill="#3f3d56" id="svg_73" transform="translate(-197.76356 -59.07674)"/>
  <path d="m933.16,235.6a380.7,380.7 0 0 1 25.02,39.27l-15.58,0a10.3,10.3 0 0 1 -10.28,-10.29l0,-24.88a10.27,10.27 0 0 1 0.84,-4.1z" fill="#ff6584" id="svg_74" transform="translate(-197.76356 -59.07674)"/>
  <path d="m901.92,287.93l-8.72,-13.06l-6.37,-9.55a3.55,3.55 0 0 0 -6.34,0.92l-2.68,8.63l-5.4,17.34a3.55,3.55 0 0 0 5.26,4.07l1.91,-1.19a2.66,2.66 0 0 1 4.05,2.03l1.76,19.16a3.56,3.56 0 0 0 3.53,3.23c0.1,0 0.21,-0.01 0.32,-0.02l2.7,-0.24a3.54,3.54 0 0 0 3.21,-3.86l-1.81,-19.79a2.66,2.66 0 0 1 3.76,-2.65l0.39,0.17a3.55,3.55 0 0 0 4.43,-5.19z" fill="#ccc" id="svg_75" transform="translate(-197.76356 -59.07674)"/>
 </g>
</svg>