<?xml version="1.0"?>
<svg width="552.94084" height="367.92049" xmlns="http://www.w3.org/2000/svg" xmlns:svg="http://www.w3.org/2000/svg">

 <g class="layer">
  <title>Layer 1</title>
  <path d="m213.78,33.24l-67.09,0c-2.3,0 -4.17,-1.87 -4.17,-4.17s1.87,-4.18 4.17,-4.18l67.09,0c2.3,0 4.17,1.87 4.17,4.18s-1.87,4.17 -4.17,4.17z" fill="#e6e7e8" id="svg_1"/>
  <path d="m266.13,47.37l-119.44,0c-2.3,0 -4.17,-1.88 -4.17,-4.18s1.87,-4.17 4.17,-4.17l119.44,0c2.3,0 4.18,1.87 4.18,4.17s-1.88,4.18 -4.18,4.18l0,0z" fill="#e6e7e8" id="svg_2"/>
  <path d="m266.13,61.37l-119.44,0c-2.3,0 -4.17,-1.88 -4.17,-4.18s1.87,-4.17 4.17,-4.17l119.44,0c2.3,0 4.18,1.87 4.18,4.17s-1.88,4.18 -4.18,4.18l0,0z" fill="#e6e7e8" id="svg_3"/>
  <path d="m278.78,134.02l0,-2c-23.08,0 -43.24,-18.86 -48.6,-45.13l8.7,2.24c-4.21,-3.99 -8.46,-10.66 -11.1,-16.11c-1.55,5.85 -4.46,13.21 -7.84,17.92l8.23,-3.9c5.48,27.33 26.5,46.98 50.61,46.98z" fill="#3f3d56" id="svg_4"/>
  <path d="m270.05,57.48c0,2.21 -1.79,4 -4,4l-52,0c-2.2,0 -4,-1.79 -4,-4s1.8,-4 4,-4l52,0c2.21,0 4,1.79 4,4z" fill="#ffc536" id="svg_5" transform="matrix(1, 0, 0, 1, 0, 0)"/>
  <g id="svg_6">
   <g id="svg_7">
    <path d="m35.9,280.3c-0.79,-2.76 -2.14,-5.11 -3.76,-6.79l-5.86,-26.73l-12.78,3.13l7.32,26.78c-0.48,2.27 -0.38,4.97 0.41,7.73c1.81,6.3 6.56,10.48 10.61,9.34c4.05,-1.14 5.87,-7.17 4.06,-13.46l0,0z" fill="#ffb6b6" id="svg_8"/>
    <path d="m34.14,104.96s-13.81,-0.48 -21.81,8.52c-9.16,11.2 -15.43,55.07 -10.73,58.02l12.75,90.49l18.17,-2.5l-4.67,-108.57l6.29,-45.96l0,0z" fill="#ffc536" id="svg_9"/>
   </g>
   <polygon fill="#2f2e41" id="svg_10" points="127.33072 257.47993 124.02328 367.91723 76.52328 367.91723 74.60332 325.34722 66.16331 367.91723 15.25333 367.91723 21.60331 294.73723 28.1633 279.34722 32.60331 268.91723 127.33072 257.47993"/>
   <path d="m89.6,86.92l-33,-2l-11,14c-9.5,2.03 -18.08,4.66 -24,9c1.42,41.92 -1.69,96.44 11,107l-11.27,79.56s4.55,-3.89 12.14,-2.52c2.62,0.48 5.79,6.39 9.01,6.74c24.77,2.75 64.94,-0.07 84.85,-41.22l-7.73,-59.56l2,-87c-6.25,-4.95 -14.02,-8.16 -23,-10l-9,-14l0,0z" fill="#ffc536" id="svg_11"/>
   <g id="svg_12">
    <path d="m153.13,62.58c0.36,3.47 -0.09,6.73 -1.14,9.34l5.5,32.81l-15.69,2.16l-3.89,-33.52c-1.56,-2.34 -2.67,-5.44 -3.03,-8.91c-0.82,-7.92 2.61,-14.76 7.65,-15.28s9.79,5.48 10.6,13.4l0,0l0,0z" fill="#ffb6b6" id="svg_13"/>
    <path d="m100.97,113.42c-1.64,2.43 -1.18,5.15 -1.58,8.43c-1.66,13.89 24.97,54.96 43.39,59.68c2.42,0.62 3.8,3.23 6.24,3.76l0,0c7.23,1.55 13.96,-4.19 13.57,-11.57l-5.01,-94.71l-21.02,7.17l1.34,49.17c-0.13,-10.18 -9.48,-20.56 -16.57,-24.87c0,0 -14.35,-5.92 -20.36,2.94z" fill="#ffc536" id="svg_14"/>
   </g>
   <g id="svg_15">
    <circle cx="76.53" cy="53.26" fill="#ffb6b6" id="svg_16" r="29.07"/>
    <path d="m103.6,31.92c-0.25,0.06 3.83,-3.92 4,-4c4,-2 -0.11,17.55 -3,17c-7.11,-1.35 -10.18,-4.03 -12.94,2.66c-0.77,1.86 -1.25,3.96 -2.75,5.29c-2.06,1.81 -5.48,1.66 -7.16,3.82c-1.35,1.74 -0.96,4.3 0.04,6.26c1,1.97 2.52,3.64 3.43,5.65c1.02,2.26 -3.33,9.45 -4.99,13.49l0,0.01l-0.01,0.02c-0.44,1.06 -1.49,-1.99 -2.59,-2.3c-1.33,-0.36 -3.28,2.77 -5.39,2.2c-0.01,0 -0.02,-0.01 -0.03,-0.01c-2.01,-0.56 -4.25,-1.16 -6.47,-1.76l-0.01,0c-6.25,-1.7 -7.83,0.74 -8.13,0.67l-3.88,-4.06c-1.33,-0.97 -1.18,-4.1 -2.12,-4.94c-0.76,-0.69 -2.68,0.9 -3.24,0.24c-2.77,-3.24 -3.41,-6.48 -5.04,-12.88c-1.49,-5.85 -4.58,-23.36 1.77,-24.15c5.99,-0.75 1.61,-9.09 7.64,-8.78c-0.36,-1.52 0.31,-3.15 1.4,-4.27c1.08,-1.13 2.52,-1.83 3.97,-2.43c7.15,-2.92 5.96,-5.43 13.5,-3.73c0.75,-1.05 10.37,-3.79 11.73,-3.44c0.1,0.02 -2.1,4.29 3.27,3.44c-0.2,1.23 2.73,-1.44 3,3c5.73,-3.44 8.81,4.79 9,6c0.25,1.51 -2.03,0.74 -0.51,0.97c0.9,0.14 2.44,1.97 2.29,2.88c0.65,-0.88 1.3,-1.75 1.96,-2.63c0.12,0.01 0.23,0.03 0.35,0.05c3.04,0.58 -0.44,10.52 -0.32,7.42c0.23,-5.69 4.26,-2.36 1.23,-1.69l0,0z" fill="#2f2e41" id="svg_17"/>
   </g>
  </g>
  <path d="m474.37,25.96c-1.07,8.83 -2.25,17.64 -3.52,26.44c-0.52,3.58 -1.06,7.2 -2.5,10.51c-0.98,2.26 -2.36,4.33 -3.73,6.38c-1.61,2.42 -3.25,4.88 -5.45,6.79s-5.04,3.26 -7.95,3.04c7.71,-5.19 12.89,-13.96 13.71,-23.22c0.38,-4.35 -0.15,-8.72 -0.25,-13.08c-0.1,-4.37 0.27,-8.89 2.28,-12.76s5.99,-6.98 10.36,-6.87l-2.95,2.77l0,0z" fill="#2f2e41" id="svg_18"/>
  <g id="svg_19">
   <path d="m396.27,214.23l0,0c-6.27,5.09 -13.98,5.97 -17.22,1.98s-0.77,-11.34 5.5,-16.43c2.74,-2.23 5.76,-3.65 8.56,-4.21l26.84,-21.21l9.69,12.8l-27.49,19.56c-1.12,2.62 -3.14,5.28 -5.88,7.51l0,0l0,0z" fill="#a0616a" id="svg_20"/>
   <path d="m401.34,185.43l39.99,-37.95l4,-3s22.96,-22.37 28.9,-22.88c2.52,-0.22 5.04,0.41 7.16,1.79c3.43,2.22 5.2,5.88 5.2,9.57c0,3.08 -1.24,6.17 -3.78,8.45l-36.61,32.87l-15.58,13.98l-19.37,17.4l-1.97,-4.01l-6.66,-13.6l-1.28,-2.62l0,0l0,0z" fill="#ffc536" id="svg_21"/>
  </g>
  <path d="m486.85,159.75l-40.04,12.26c6.7,1.89 9.51,42.74 3.27,44.01c0,0 66.37,4.72 62.75,0c-4.42,-5.75 1.5,-43.99 4.32,-44.01l-30.3,-12.26z" fill="#a0616a" id="svg_22"/>
  <path d="m540.14,367.92l-3.5,-42.24c0,-15.11 -0.98,-28.76 -2.55,-40.93c-6.29,-48.85 -22.06,-73.89 -22.06,-73.89l-59,0c-0.08,0.09 -0.16,0.16 -0.24,0.25l-0.01,0.01c-13.92,14.63 -21.16,51.42 -24.38,73.63c-1.53,10.57 -2.15,17.84 -2.15,17.84l-5.77,51.28l4.17,14.05l34.33,0l-0.54,-3.01l22.09,-80.16l0.27,-0.98l0.24,0.98l20.48,83.17l38.62,0l0,0z" fill="#2f2e41" id="svg_23"/>
  <path d="m454.24,135.38l12.46,-25.17l10.51,-18.28l8.49,-8.66l23.25,0l2.17,8.66l12.98,7.21l4.6,36.07l-16.37,78.27c-19.48,-15.87 -59.63,-20.27 -59.63,-20.27l-6.5,-18.93l-4.3,-22.8l-0.52,-2.73l12.86,-13.37l0,0l0,0z" fill="#ffc536" id="svg_24" transform="matrix(1, 0, 0, 1, 0, 0)"/>
  <g id="svg_25">
   <path d="m452.74,180.91l0,0c-8.07,-0.23 -14.49,-4.58 -14.35,-9.72c0.15,-5.13 6.81,-9.11 14.88,-8.88c3.53,0.1 6.75,0.99 9.24,2.39l34.18,1.4l-1,16.02l-33.59,-3.08c-2.57,1.26 -5.83,1.97 -9.36,1.87l0,0l0,0z" fill="#a0616a" id="svg_26"/>
   <path d="m496.46,126.2l32.24,32.01l-56.17,5.75l-13.05,18.36l78.29,2.6c7.06,2.52 14.59,-2.37 15.17,-9.84l0,0c0.2,-2.53 -15.89,-66.57 -25.63,-72.52c-11.41,-6.97 -30.85,23.64 -30.85,23.64l6.37,-10.61l-6.37,10.61z" fill="#ffc536" id="svg_27"/>
  </g>
  <circle cx="492.53" cy="51.43" fill="#a0616a" id="svg_28" r="26.33" transform="translate(433.15935 543.06627) rotate(-89.07621)"/>
  <path d="m550.33,133.48c-0.66,2.5 -5.8,3.79 -7,7c-3.82,2.18 -1.75,-15.63 -3.29,-16.8c-1.19,-0.89 -1.51,1.26 -1.78,-0.59c-1.02,-6.94 -7.69,-5.39 -12.63,-6.51c-0.56,-1.09 -0.99,-2.15 -1.27,-3.18c-0.5,-1.86 -2.78,-2.51 -4.13,-1.14c-0.61,-0.54 -1.05,-2.45 -1.48,-4.36c-0.31,-1.39 -0.62,-2.78 -0.98,-3.66l-3.44,-7.76l1.11,5.78c-2.25,-0.81 -4.52,0.03 -5.83,-2.75c-1.68,-3.57 -2.35,-7.75 -1.13,-11.5c1.11,-3.4 2.98,-10.21 5.09,-15.85c-2.39,1.73 -5.26,2.99 -8.59,3.62c1.18,-2.24 2.38,-4.52 2.88,-7.01c0.49,-2.49 0.19,-5.26 -1.39,-7.24c-1.3,-1.63 -3.22,-1.22 -4.84,-2.53c-1.26,-1.02 -2.35,-3.63 -3.11,-5.06c3.24,10.77 5.69,22.21 1.57,32.49c-2.85,7.12 -8.85,12.91 -16.05,15.54c3.83,-2.74 7.57,-5.66 10.44,-9.38c3.07,-3.99 5.07,-9.03 4.46,-14.03c-0.96,-7.85 -15.52,-32.68 -17.31,-37.56c0.98,4.77 0.6,8.49 -1.98,10.54c-0.67,-6.92 -8.21,-6.29 -12.32,-9.06c0,0 -3.18,-17.97 4.28,-18.08c3.6,-0.05 7.37,-8.51 10.64,-10.02c5.22,-2.41 8.42,-0.77 14.21,-0.59c5.78,0.17 11.33,2.66 14.86,7.23c1.85,2.39 2.53,0.49 5.31,1.98c2.64,1.41 4.42,0.1 7.41,0.19c5.99,0.16 11.8,3.36 15.16,8.31c3.36,4.96 5.43,4.5 4.1,12.17c-0.02,0.09 -0.02,0.27 0,0.54c0.73,12.08 -1.14,24.19 -5.93,35.31c-1.48,3.42 5.76,6.95 5.75,11.22c-0.01,4.96 -8,9.48 -7.26,11.6c2.12,10.21 14.03,7.94 11.22,25.03c-0.23,1.39 3.69,4.44 3.25,6.11z" fill="#2f2e41" id="svg_29"/>
  <path d="m477.38,102.21c0.22,-0.07 0.44,-0.15 0.66,-0.24c-0.28,0.2 -0.55,0.39 -0.83,0.59l0.17,-0.35z" fill="#2f2e41" id="svg_30"/>
  <path d="m514.47,17.96c-2.86,0.43 -5.77,-4.33 -4.15,-10.92c3.55,5.42 5.36,11.52 5.64,18.22l-1.91,0.6l0.42,-7.9z" fill="#6c63ff" id="svg_31"/>
  <path d="m529.11,11.81c-1.96,6.93 -11.89,11.56 -13.64,9.15l-0.2,4.13l-1.23,-1.58c3.56,-5.29 8.42,-9.35 15.07,-11.7l0,0z" fill="#6c63ff" id="svg_32"/>
  <g id="svg_33">
   <path d="m311.12,198.59c0,-2.3 1.87,-4.17 4.17,-4.17l67.09,0c2.3,0 4.17,1.87 4.17,4.17s-1.87,4.18 -4.17,4.18l-67.09,0c-2.3,0 -4.17,-1.87 -4.17,-4.18z" fill="#e6e7e8" id="svg_34"/>
   <path d="m311.12,226.59c0,-2.3 1.87,-4.17 4.17,-4.17l67.09,0c2.3,0 4.17,1.87 4.17,4.17s-1.87,4.18 -4.17,4.18l-67.09,0c-2.3,0 -4.17,-1.87 -4.17,-4.18z" fill="#e6e7e8" id="svg_35"/>
   <path d="m262.94,216.89c-2.3,0 -4.17,-1.87 -4.17,-4.17s1.87,-4.17 4.17,-4.17l119.44,0c2.3,0 4.17,1.87 4.17,4.17s-1.87,4.17 -4.17,4.17l-119.44,0z" fill="#e6e7e8" id="svg_36"/>
  </g>
  <g id="svg_37">
   <path d="m254.06,176.95l-8.23,-3.9c3.38,4.71 6.29,12.07 7.84,17.92c2.64,-5.45 6.89,-12.13 11.1,-16.11l-8.7,2.24c5.36,-26.27 25.52,-45.13 48.6,-45.13l0,-2c-24.11,0 -45.14,19.65 -50.61,46.98z" fill="#3f3d56" id="svg_38"/>
   <path d="m291.94,216.97l-52,0c-2.2,0 -4,-1.79 -4,-4s1.8,-4 4,-4l52,0c2.21,0 4,1.8 4,4s-1.79,4 -4,4z" fill="#ffc536" id="svg_39"/>
  </g>
  <circle cx="291.67" cy="132.66" fill="#3f3d56" id="svg_40" r="15.66" transform="translate(114.00804 399.31512) rotate(-80.78253)"/>
  <circle cx="206.67" cy="9.66" fill="#e6e7e8" id="svg_41" r="9.66"/>
  <circle cx="319.67" cy="176.66" fill="#e6e7e8" id="svg_42" r="9.66"/>
 </g>
</svg>