<?xml version="1.0"?>
<svg width="863.35926" height="551.172" xmlns="http://www.w3.org/2000/svg" xmlns:svg="http://www.w3.org/2000/svg" data-name="Layer 1">

 <g class="layer">
  <title>Layer 1</title>
  <path d="m1009.54,675.54a24.21,24.21 0 0 1 -23.38,-4.12c-8.19,-6.87 -10.76,-18.19 -12.85,-28.68l-6.18,-31.02l12.94,8.91c9.3,6.41 18.82,13.02 25.26,22.3s9.25,21.95 4.08,31.99" data-name="Path 438" fill="#e6e6e6" id="af9c47ac-a2dc-4072-9acc-a467df334c71-1461" transform="translate(-168.32037 -174.414)"/>
  <path d="m1007.54,715.25c1.63,-11.86 3.31,-23.88 2.16,-35.87c-1.01,-10.65 -4.26,-21.05 -10.88,-29.58a49.21,49.21 0 0 0 -12.62,-11.44c-1.27,-0.8 -2.43,1.2 -1.17,2a46.78,46.78 0 0 1 18.5,22.32c4.03,10.25 4.68,21.42 3.99,32.3c-0.42,6.59 -1.32,13.12 -2.21,19.66a1.2,1.2 0 0 0 0.81,1.42a1.16,1.16 0 0 0 1.42,-0.81z" data-name="Path 439" fill="#f2f2f2" id="a2175a99-769b-4e22-9c2a-ba3916b1dd51-1462" transform="translate(-168.32037 -174.414)"/>
  <path d="m995.82,696.22a17.83,17.83 0 0 1 -15.53,8.01c-7.87,-0.37 -14.42,-5.86 -20.32,-11.07l-17.45,-15.4l11.55,-0.56c8.31,-0.4 16.83,-0.77 24.74,1.8s15.21,8.72 16.65,16.91" data-name="Path 442" fill="#e6e6e6" id="af3ce5ac-a957-487e-9ef8-bdcad0da5bae-1463" transform="translate(-168.32037 -174.414)"/>
  <path d="m1012.14,722.07c-7.84,-13.87 -16.93,-29.29 -33.18,-34.21a37.03,37.03 0 0 0 -13.95,-1.44c-1.48,0.12 -1.11,2.41 0.36,2.28a34.4,34.4 0 0 1 22.28,5.89c6.28,4.28 11.17,10.22 15.3,16.52c2.54,3.86 4.81,7.89 7.08,11.9c0.73,1.29 2.85,0.36 2.11,-0.94z" data-name="Path 443" fill="#f2f2f2" id="baa57c63-949d-49ac-a818-33ae8c022157-1464" transform="translate(-168.32037 -174.414)"/>
  <rect data-name="Rectangle 62" fill="#e6e6e6" height="252.41" id="b0eb2d2e-6002-4ca6-b573-2a3a0ae57324" width="531.92" x="0.23" y="14.58"/>
  <rect data-name="Rectangle 75" fill="#fff" height="210.59" id="b22521a2-b305-47e5-91b3-f89bb30cedaf" width="501.5" x="15.44" y="36.23"/>
  <rect data-name="Rectangle 80" fill="#ffc536" height="22.6" id="b9a97102-17ad-4853-bba8-52d2fbac14c1" width="531.92"/>
  <circle cx="16.79" cy="13.29" data-name="Ellipse 90" fill="#fff" id="f3a384f8-0054-45a4-b875-f53a31bc49a8" r="4.19"/>
  <circle cx="32.69" cy="13.29" data-name="Ellipse 91" fill="#fff" id="a6ee8772-6be5-4bf0-b917-98ef2062699d" r="4.19"/>
  <circle cx="48.59" cy="13.29" data-name="Ellipse 92" fill="#fff" id="a71cc61a-5bfc-4a03-b945-2c535d93104d" r="4.19"/>
  <path d="m660.64,378.58l-248.66,0a0.78,0.78 0 0 1 -0.77,-0.78l0,-119.18a0.78,0.78 0 0 1 1.55,0l0,118.4l247.88,0a0.78,0.78 0 0 1 0,1.56z" fill="#3f3d56" id="svg_1" transform="translate(-168.32037 -174.414)"/>
  <path d="m296.79,195.61l-22.61,0a2.31,2.31 0 0 1 -2.31,-2.31l0,-31.18a2.31,2.31 0 0 1 2.31,-2.31l22.61,0a2.31,2.31 0 0 1 2.31,2.31l0,31.18a2.31,2.31 0 0 1 -2.31,2.31z" fill="#ffc536" id="svg_2"/>
  <path d="m338.04,195.61l-22.62,0a2.31,2.31 0 0 1 -2.31,-2.31l0,-60.75a2.31,2.31 0 0 1 2.31,-2.31l22.62,0a2.31,2.31 0 0 1 2.31,2.31l0,60.75a2.31,2.31 0 0 1 -2.31,2.31z" fill="#ffc536" id="svg_3"/>
  <path d="m379.28,195.61l-22.62,0a2.31,2.31 0 0 1 -2.31,-2.31l0,-31.18a2.31,2.31 0 0 1 2.31,-2.31l22.62,0a2.31,2.31 0 0 1 2.31,2.31l0,31.18a2.31,2.31 0 0 1 -2.31,2.31z" fill="#ffc536" id="svg_4"/>
  <path d="m420.52,195.61l-22.61,0a2.26,2.26 0 0 1 -2.31,-2.2l0,-72.63a2.26,2.26 0 0 1 2.31,-2.21l22.61,0a2.26,2.26 0 0 1 2.31,2.21l0,72.63a2.26,2.26 0 0 1 -2.31,2.2z" fill="#ffc536" id="svg_5"/>
  <path d="m461.77,195.61l-22.62,0a2.31,2.31 0 0 1 -2.31,-2.31l0,-93.43a2.31,2.31 0 0 1 2.31,-2.31l22.62,0a2.31,2.31 0 0 1 2.31,2.31l0,93.43a2.31,2.31 0 0 1 -2.31,2.31z" fill="#ffc536" id="svg_6"/>
  <circle cx="285.48" cy="145.8" fill="#3f3d56" id="svg_7" r="4.67"/>
  <circle cx="326.73" cy="115.45" fill="#3f3d56" id="svg_8" r="4.67"/>
  <circle cx="367.97" cy="145.8" fill="#3f3d56" id="svg_9" r="4.67"/>
  <circle cx="409.22" cy="100.67" fill="#3f3d56" id="svg_10" r="4.67"/>
  <circle cx="450.46" cy="83.55" fill="#3f3d56" id="svg_11" r="4.67"/>
  <polygon fill="#3f3d56" id="svg_12" points="368.07 146.849 326.728 115.883 285.95 146.426 285.017 145.18 326.728 113.938 367.873 144.757 408.761 100.013 408.925 99.946 450.169 83.328 450.751 84.772 409.671 101.323 368.07 146.849"/>
  <rect fill="#e6e6e6" height="5.31" id="svg_13" width="70.63" x="72.13" y="61.97"/>
  <rect fill="#ffc536" height="5.31" id="svg_14" width="109.07" x="72.13" y="77.55"/>
  <rect fill="#e6e6e6" height="5.31" id="svg_15" width="88.89" x="73.26" y="92.39"/>
  <rect fill="#e6e6e6" height="5.31" id="svg_16" width="51.89" x="72.13" y="108.68"/>
  <rect fill="#ffc536" height="5.31" id="svg_17" width="78.32" x="72.13" y="124.59"/>
  <rect fill="#e6e6e6" height="8.65" id="svg_18" width="8.65" x="39.93" y="60.3"/>
  <rect fill="#ffc536" height="8.65" id="svg_19" width="8.65" x="39.93" y="75.88"/>
  <rect fill="#e6e6e6" height="8.65" id="svg_20" width="8.65" x="39.93" y="90.72"/>
  <rect fill="#e6e6e6" height="8.65" id="svg_21" width="8.65" x="39.93" y="107.01"/>
  <rect fill="#ffc536" height="8.65" id="svg_22" width="8.65" x="39.93" y="122.92"/>
  <rect fill="#e6e6e6" height="5.31" id="svg_23" width="70.63" x="72.13" y="140.59"/>
  <rect fill="#ffc536" height="5.31" id="svg_24" width="109.07" x="72.13" y="156.18"/>
  <rect fill="#e6e6e6" height="5.31" id="svg_25" width="88.89" x="73.26" y="171.02"/>
  <rect fill="#e6e6e6" height="5.31" id="svg_26" width="51.89" x="72.13" y="187.31"/>
  <rect fill="#e6e6e6" height="5.31" id="svg_27" width="78.32" x="72.13" y="203.21"/>
  <rect fill="#e6e6e6" height="8.65" id="svg_28" width="8.65" x="39.93" y="138.92"/>
  <rect fill="#ffc536" height="8.65" id="svg_29" width="8.65" x="39.93" y="154.51"/>
  <rect fill="#e6e6e6" height="8.65" id="svg_30" width="8.65" x="39.93" y="169.35"/>
  <rect fill="#e6e6e6" height="8.65" id="svg_31" width="8.65" x="39.93" y="185.64"/>
  <rect fill="#e6e6e6" height="8.65" id="svg_32" width="8.65" x="39.93" y="201.54"/>
  <path d="m813.9,337.22c2.97,-9.48 9.74,-18.18 19.1,-21.39c9.35,-3.2 25.68,-0.21 30.09,8.69c6.36,12.82 3.5,28.53 0.13,42.45c-1.76,-0.09 -3.53,-0.17 -5.31,-0.23l-2.52,-8.39l0,8.3c-13.89,-0.43 -28.35,-0.16 -42.82,0.12c-1.3,-9.86 -1.65,-20.07 1.33,-29.55z" fill="#2f2e41" id="svg_33" transform="translate(-168.32037 -174.414)"/>
  <polygon fill="#ffb7b7" id="svg_34" points="773.219 524.09 761.533 528.987 737.084 486.247 754.33 479.019 773.219 524.09"/>
  <path d="m949.27,708.58l-37.68,15.79l-0.2,-0.47a15.9,15.9 0 0 1 8.52,-20.82l0,0l23.01,-9.64l6.35,15.14z" fill="#2f2e41" id="svg_35" transform="translate(-168.32037 -174.414)"/>
  <path d="m770.18,496.61a8.77,8.77 0 0 1 3.56,-12.96l25.11,-75.79l16.82,8.97l-29.98,71.67a8.81,8.81 0 0 1 -15.51,8.11z" fill="#ffb7b7" id="svg_36" transform="translate(-168.32037 -174.414)"/>
  <polygon fill="#ffb7b7" id="svg_37" points="632.825 537.677 620.155 537.676 614.128 488.807 632.827 488.808 632.825 537.677"/>
  <path d="m804.38,724.37l-40.86,0l0,-0.52a15.9,15.9 0 0 1 15.9,-15.9l0.01,0l24.95,0l0,16.42z" fill="#2f2e41" id="svg_38" transform="translate(-168.32037 -174.414)"/>
  <polygon fill="#ffb7b7" id="svg_39" points="683.623 259.72 686.494 267.184 685.92 274.648 630.801 267.759 632.524 261.443 638.839 253.979 683.623 259.72"/>
  <circle cx="665.86" cy="172.48" fill="#ffb8b8" id="svg_40" r="20.07"/>
  <path d="m855.12,442.13l-54.66,-5.81l-2.37,-7.74c-0.73,-1.01 -7.67,-10.85 -6.13,-20.67a17.12,17.12 0 0 1 7.39,-11.47l13.29,-15.56l11.69,-6.96l23.05,-2.3l0.08,0.02l20.69,4.68l-0.25,37.93l-12.78,27.88z" fill="#ccc" id="svg_41" transform="translate(-168.32037 -174.414)"/>
  <path d="m801.84,446.15l-15.31,-1.82l0.04,-0.48c0.14,-1.69 3.49,-41.51 6.92,-50.66c3.5,-9.34 18.68,-12.25 19.32,-12.37l0.19,-0.03l3.37,2.02l-9.31,29.08l-5.22,34.26z" fill="#ccc" id="svg_42" transform="translate(-168.32037 -174.414)"/>
  <path d="m854.81,446.19l0,12.76s14.93,19.39 6.89,34.32c0,0 17.23,32.16 18.38,43.64l16.07,52.82s40.19,40.19 36.75,68.9l2.3,9.19l-26.41,11.48l-5.75,-8.04l-44.78,-76.94l-37.89,-70.04l-6.89,82.68s4.59,64.3 -8.04,71.19l-1.15,10.34l-26.81,0l0,-9.83s-9.94,-34.96 -4.2,-61.37l-2.29,-111.39s10.33,-47.08 22.96,-55.12l4.6,-11.48l56.26,6.89z" fill="#2f2e41" id="svg_43" transform="translate(-168.32037 -174.414)"/>
  <path d="m835.73,472.56a9.03,9.03 0 0 1 1.35,0.42l35.04,-24.11l-0.81,-10.3l15.39,-3.25l3.19,18.1a6.86,6.86 0 0 1 -3.72,7.35l-43.39,21.4a9,9 0 1 1 -7.05,-9.61z" fill="#ffb7b7" id="svg_44" transform="translate(-168.32037 -174.414)"/>
  <path d="m871.79,450.2l-7.13,-47.57l-5.86,-24.57l8.75,-1.83c0.24,-0.09 7.36,-2.5 13.1,1.38c4.14,2.79 6.43,8.08 6.82,15.73l2.31,54.43l-17.99,2.43z" fill="#ccc" id="svg_45" transform="translate(-168.32037 -174.414)"/>
  <path d="m820.39,320.77a25.2,25.2 0 0 1 38.32,22c-11.22,0.51 -23,0.65 -34.95,0.67l-2.82,-6.91l-1.67,6.91q-5.46,0 -10.94,-0.01a25.74,25.74 0 0 1 12.06,-22.66z" fill="#2f2e41" id="svg_46" transform="translate(-168.32037 -174.414)"/>
  <path d="m1030.68,725.59l-381,0a1,1 0 1 1 0,-2l381,0a1,1 0 0 1 0,2z" fill="#cbcbcb" id="svg_47" transform="translate(-168.32037 -174.414)"/>
 </g>
</svg>